<svg width="601" height="118" viewBox="0 0 601 118" fill="none" xmlns="http://www.w3.org/2000/svg">
<path fill-rule="evenodd" clip-rule="evenodd" d="M136.285 20.24V15.248C136.285 14 135.453 12.44 134.517 11.712L132.125 9.83997L144.293 0.0639648L149.493 4.43197C150.429 5.15997 151.157 6.82397 151.157 7.96797V28.768L157.709 24.192L172.061 37.712C172.893 38.544 173.621 40.104 173.621 41.352V61.32C173.621 62.568 174.453 63.92 175.597 64.44L181.109 67.04L170.189 78.896L160.517 72.656C159.477 72.032 158.645 70.576 158.645 69.328V49.36C158.645 48.112 157.917 46.552 156.981 45.72L151.157 40.624V71.512L136.285 79V22.4851L125.421 34.488V61.424C125.421 62.672 126.357 64.024 127.397 64.544L132.909 67.144L121.989 79L112.317 72.76C111.277 72.136 110.549 70.68 110.549 69.432V34.488L103.789 27L110.549 20.136V18.784C110.549 17.952 109.717 16.704 108.781 15.976L106.389 14.104L118.557 4.32797L123.757 8.69596C124.693 9.42397 125.421 11.088 125.421 12.232V20.24H136.285ZM60.1203 23.288V61.32C60.1203 61.7819 59.9603 62.258 59.8115 62.7009C59.5582 63.4548 59.3372 64.1124 59.9923 64.44L67.5043 67.04L56.5843 78.896L46.9123 72.656C45.8723 72.032 45.0403 70.472 45.0403 69.328V31.192C45.0403 30.048 44.3123 28.488 43.4803 27.656L37.6563 22.56V71.512L22.6803 79V31.296C22.6803 30.048 21.9523 28.488 21.1203 27.656L15.2963 22.56V71.512L0.320312 79V22.56L9.57631 17.568L6.66431 14.968L20.7043 5.19197L30.2723 14.136L43.0643 5.19197L58.4563 19.648C59.3923 20.48 60.1203 22.04 60.1203 23.288ZM67.5859 41.664L77.8819 36.568L75.0739 34.072L89.1139 24.4L103.362 37.816C104.194 38.648 104.922 40.208 104.922 41.456V62.256L82.5619 79.104L69.1459 66.104C68.3139 65.272 67.5859 63.712 67.5859 62.464V41.664ZM82.5619 54.456C82.5619 55.704 83.1859 57.264 84.1219 58.096L90.0499 63.92V49.464C90.0499 48.216 89.3219 46.656 88.3859 45.824L82.5619 40.728V54.456ZM200.161 55.6L224.393 42.6L204.84 24.296L190.801 34.072L193.609 36.568L183.312 41.664V62.464C183.312 63.608 184.04 65.272 184.872 66.104L198.288 79L211.6 69.64L199.848 58.096C198.912 57.264 199.121 56.12 200.161 55.6ZM198.288 40.624L207.753 49.048L198.288 54.144V40.624ZM259.934 34.384L247.558 43.12L243.398 39.896V61.84C243.398 62.984 244.23 64.44 245.27 64.96L250.886 67.56L239.966 79.416L230.19 73.176C229.254 72.552 228.422 71.096 228.422 69.848V39.688C228.422 38.44 227.59 36.984 226.55 36.36L223.43 34.488L235.598 24.712L241.526 29.08L247.454 24.712L259.934 34.384ZM318 8.91201H315.604L313.94 7.368L308.74 3L299.5 8.91201L278.732 8.808L274 23.16H300.732V68.104C300.732 69.352 301.46 70.808 302.5 71.432L312.172 77.672L323.092 65.816L317.58 63.216C316.54 62.696 315.604 61.344 315.604 60.096V23.16L321.179 17H318V8.91201ZM359.059 34.384L346.683 43.12L342.523 39.896V61.84C342.523 62.984 343.355 64.44 344.395 64.96L350.011 67.56L339.091 79.416L329.315 73.176C328.379 72.552 327.547 71.096 327.547 69.848V39.688C327.547 38.44 326.715 36.984 325.675 36.36L322.555 34.488L334.723 24.712L340.651 29.08L346.579 24.712L359.059 34.384ZM383.296 34.28V63.816L377.368 58.096C376.536 57.264 375.808 55.6 375.808 54.456V36.36C375.808 35.112 375.08 33.552 374.144 32.824L367.696 27.52L356.984 39.168L358.96 40.416C360 41.144 360.832 42.6 360.936 43.744V62.464C360.936 63.608 361.56 65.272 362.496 66.104L375.808 79L384.96 72.656L394.84 79L405.76 67.144L400.248 64.544C399.104 64.024 398.272 62.672 398.272 61.424V27.52L383.296 34.28ZM418.679 54.456C418.679 55.6 419.303 57.264 420.239 58.096L432.095 69.64L418.679 79L405.263 66.104C404.431 65.272 403.703 63.608 403.703 62.464V41.664L413.999 36.568L411.191 34.072L425.231 24.296L439.063 37.192L426.271 47.28L418.679 40.624V54.456ZM440.176 15.248V79L455.048 71.512V53.624L460.976 58.72C461.808 59.552 462.536 61.112 462.536 62.36V82.328C462.536 83.576 463.368 85.032 464.408 85.656L474.08 91.896L485 80.04L479.488 77.44C478.344 76.92 477.512 75.568 477.512 74.32V54.352C477.512 53.104 476.784 51.544 475.952 50.712L465.136 40.52L472.936 34.8L461.392 24.816L455.048 29.496V7.96797C455.048 6.82397 454.32 5.15997 453.384 4.43197L448.184 0.0639648L436.016 9.83997L438.408 11.712C439.344 12.44 440.176 14 440.176 15.248ZM483.649 69.432V43.536L487.497 40.416L478.969 33.968L491.137 24.92L503.721 34.176L498.625 37.92V61.424C498.625 62.568 499.457 64.024 500.601 64.44L506.113 67.144L495.193 79L485.521 72.76C484.481 72.136 483.649 70.576 483.649 69.432ZM546.153 37.712L531.905 24.4L524.521 29.496L519.009 24.4L504.969 34.176L508.817 37.608C509.753 38.336 510.481 40 510.481 41.144V79L525.457 71.616V40.728L531.177 45.824C532.113 46.656 532.841 48.216 532.841 49.464V69.432C532.841 70.576 533.673 72.136 534.609 72.76L544.385 79L555.305 67.144L549.689 64.44C548.649 63.92 547.817 62.568 547.817 61.424V41.352C547.817 40.208 547.089 38.544 546.153 37.712ZM577.786 24.296L592.034 37.712C592.866 38.544 593.594 40.208 593.594 41.352V71.512L578.722 79V73.696L571.234 79L557.818 66.104C556.986 65.272 556.258 63.608 556.258 62.36V41.664L566.554 36.464L563.746 34.072L577.786 24.296ZM578.722 79L585 87L582.5 91L577.058 85.5L578.722 79ZM571.234 40.624V54.352C571.234 55.6 571.858 57.264 572.794 58.096L578.722 63.816V49.36C578.722 48.216 577.994 46.552 577.058 45.824L571.234 40.624Z" fill="white"/>
<path d="M280.912 8.48801L272.904 8.48801C271.76 8.48801 270.096 9.21602 269.368 10.152L265 15.352L274.776 27.52L276.648 25.128C277.376 24.192 278.624 23.36 279.456 23.36L280.808 23.36L295.16 23.36L330.104 23.36C331.352 23.36 333.432 21.592 333.432 21.592L322.096 8.48801L295.16 8.48801L280.912 8.48801Z" fill="white"/>
<path d="M127.102 102.781V117H124.65V102.781H127.102ZM132.902 109.002V110.945H126.477V109.002H132.902ZM133.713 102.781V104.734H126.477V102.781H133.713Z" fill="white"/>
<path d="M154.772 115.057V117H147.634V115.057H154.772ZM148.317 102.781V117H145.866V102.781H148.317Z" fill="white"/>
<path d="M176.173 115.057V117H168.625V115.057H176.173ZM169.318 102.781V117H166.867V102.781H169.318ZM175.187 108.719V110.633H168.625V108.719H175.187ZM176.125 102.781V104.734H168.625V102.781H176.125Z" fill="white"/>
<path d="M197.682 115.057V117H190.133V115.057H197.682ZM190.827 102.781V117H188.375V102.781H190.827ZM196.696 108.719V110.633H190.133V108.719H196.696ZM197.633 102.781V104.734H190.133V102.781H197.633Z" fill="white"/>
<path d="M215.929 102.781V117H213.497V102.781H215.929ZM220.392 102.781V104.734H209.073V102.781H220.392Z" fill="white"/>
<path d="M248.175 102.781H250.362L254.473 113.748L258.575 102.781H260.762L255.333 117H253.595L248.175 102.781ZM247.179 102.781H249.259L249.62 112.273V117H247.179V102.781ZM259.679 102.781H261.768V117H259.317V112.273L259.679 102.781Z" fill="white"/>
<path d="M280.591 104.676L276.343 117H273.775L279.127 102.781H280.767L280.591 104.676ZM284.146 117L279.888 104.676L279.703 102.781H281.353L286.724 117H284.146ZM283.941 111.727V113.67H276.207V111.727H283.941Z" fill="white"/>
<path d="M309.795 102.781V117H307.344L300.967 106.814V117H298.516V102.781H300.967L307.364 112.986V102.781H309.795Z" fill="white"/>
<path d="M328.628 104.676L324.38 117H321.812L327.163 102.781H328.804L328.628 104.676ZM332.183 117L327.925 104.676L327.739 102.781H329.39L334.761 117H332.183ZM331.978 111.727V113.67H324.243V111.727H331.978Z" fill="white"/>
<path d="M357.314 109.734V115.164C357.113 115.431 356.797 115.724 356.367 116.043C355.944 116.355 355.381 116.626 354.678 116.854C353.975 117.081 353.099 117.195 352.051 117.195C351.159 117.195 350.342 117.046 349.6 116.746C348.857 116.44 348.216 115.994 347.676 115.408C347.142 114.822 346.729 114.109 346.436 113.27C346.143 112.423 345.996 111.46 345.996 110.379V109.393C345.996 108.318 346.13 107.361 346.396 106.521C346.67 105.675 347.061 104.959 347.568 104.373C348.076 103.787 348.688 103.344 349.404 103.045C350.127 102.739 350.944 102.586 351.855 102.586C353.021 102.586 353.984 102.781 354.746 103.172C355.514 103.556 356.107 104.09 356.523 104.773C356.94 105.457 357.204 106.238 357.314 107.117H354.912C354.834 106.622 354.681 106.18 354.453 105.789C354.232 105.398 353.913 105.092 353.496 104.871C353.086 104.643 352.552 104.529 351.895 104.529C351.328 104.529 350.83 104.637 350.4 104.852C349.971 105.066 349.613 105.382 349.326 105.799C349.046 106.215 348.835 106.723 348.691 107.322C348.548 107.921 348.477 108.605 348.477 109.373V110.379C348.477 111.16 348.558 111.854 348.721 112.459C348.89 113.064 349.131 113.576 349.443 113.992C349.762 114.409 350.15 114.725 350.605 114.939C351.061 115.148 351.576 115.252 352.148 115.252C352.708 115.252 353.167 115.206 353.525 115.115C353.883 115.018 354.167 114.904 354.375 114.773C354.59 114.637 354.756 114.507 354.873 114.383V111.561H351.914V109.734H357.314Z" fill="white"/>
<path d="M379.536 115.057V117H371.987V115.057H379.536ZM372.68 102.781V117H370.229V102.781H372.68ZM378.55 108.719V110.633H371.987V108.719H378.55ZM379.487 102.781V104.734H371.987V102.781H379.487Z" fill="white"/>
<path d="M392.734 102.781H394.921L399.033 113.748L403.134 102.781H405.322L399.892 117H398.154L392.734 102.781ZM391.738 102.781H393.818L394.179 112.273V117H391.738V102.781ZM404.238 102.781H406.328V117H403.877V112.273L404.238 102.781Z" fill="white"/>
<path d="M428.745 115.057V117H421.196V115.057H428.745ZM421.889 102.781V117H419.438V102.781H421.889ZM427.758 108.719V110.633H421.196V108.719H427.758ZM428.696 102.781V104.734H421.196V102.781H428.696Z" fill="white"/>
<path d="M452.226 102.781V117H449.775L443.398 106.814V117H440.946V102.781H443.398L449.794 112.986V102.781H452.226Z" fill="white"/>
<path d="M470.902 102.781V117H468.471V102.781H470.902ZM475.365 102.781V104.734H464.047V102.781H475.365Z" fill="white"/>
<path d="M74.5714 5L68 10.3514L74.5714 16L82 10.3514L74.5714 5Z" fill="white"/>
<path d="M371.571 5L365 10.3514L371.571 16L379 10.3514L371.571 5Z" fill="white"/>
<path d="M92.5714 5L86 10.3514L92.5714 16L100 10.3514L92.5714 5Z" fill="white"/>
<path d="M389.571 5L383 10.3514L389.571 16L397 10.3514L389.571 5Z" fill="white"/>
<path d="M532.912 81.8957L524.904 81.8957C523.76 81.8957 522.096 82.6237 521.368 83.5597L517 88.7597L526.776 100.928L528.648 98.5357C529.376 97.5997 530.624 96.7677 531.456 96.7677L532.808 96.7677L547.16 96.7677L582.104 96.7677C583.352 96.7677 584.808 96.0397 585.432 94.9997L591.672 85.3277L579.816 74.4077L577.216 79.9197C576.696 80.9597 575.344 81.8957 574.096 81.8957L547.16 81.8957L532.912 81.8957Z" fill="white"/>
</svg>
