<svg width="1067" height="207" viewBox="0 0 1067 207" fill="none" xmlns="http://www.w3.org/2000/svg">
<mask id="path-1-outside-1_1_1957" maskUnits="userSpaceOnUse" x="0.0574646" y="-0.70163" width="1067" height="191" fill="black">
<rect fill="white" x="0.0574646" y="-0.70163" width="1067" height="191"/>
<path fill-rule="evenodd" clip-rule="evenodd" d="M244.188 32.1152V40.9317H225.001V26.7886C225.001 24.7681 223.715 21.8293 222.062 20.5436L212.878 12.8291L191.388 30.0948L195.613 33.401C197.266 34.6867 198.735 36.8908 198.735 38.3602V40.748L186.796 52.8707L198.735 66.0955V127.811C198.735 130.015 200.021 132.587 201.858 133.689L218.94 144.709L238.226 123.77L228.491 119.178C226.654 118.26 225.001 115.872 225.001 113.668V66.0955L244.188 44.8968V144.709L270.454 131.485V76.9324L280.74 85.9326C282.393 87.402 283.679 90.1572 283.679 92.3613V127.627C283.679 129.831 285.148 132.403 286.985 133.505L304.067 144.526L323.353 123.586L313.618 118.994C311.598 118.076 310.128 115.688 310.128 113.484V78.2182C310.128 76.014 308.842 73.2589 307.373 71.7895L282.026 47.9115L270.454 55.9932V19.2578C270.454 17.2374 269.168 14.2986 267.515 13.0128L258.331 5.29837L236.841 22.564L241.066 25.8702C242.719 27.1559 244.188 29.9111 244.188 32.1152ZM109.672 113.484V46.3149C109.672 44.1108 108.386 41.3556 106.733 39.8862L79.5487 14.3551L56.9565 30.1513L40.0582 14.3551L15.2618 31.6207L20.4047 36.2126L4.05746 45.0291V144.709L30.507 131.485V45.0291L40.7929 54.0293C42.2623 55.4987 43.548 58.2539 43.548 60.458V144.709L69.9975 131.485V45.0291L80.2834 54.0293C81.7529 55.4987 83.0386 58.2539 83.0386 60.2743V127.627C83.0386 129.648 84.508 132.403 86.3448 133.505L103.427 144.526L122.713 123.586L109.446 118.994C108.289 118.416 108.679 117.254 109.126 115.923C109.389 115.141 109.672 114.3 109.672 113.484ZM141.041 69.769L122.857 78.7692V115.505C122.857 117.709 124.143 120.464 125.612 121.933L149.306 144.893L188.797 115.137V78.4018C188.797 76.1977 187.511 73.4426 186.042 71.9732L160.878 48.2788L136.082 65.3608L141.041 69.769ZM152.062 107.79C150.409 106.321 149.306 103.566 149.306 101.361V77.1161L159.592 86.1163C161.245 87.5857 162.531 90.3409 162.531 92.545V118.076L152.062 107.79ZM399.797 80.4223L357 103.382C355.164 104.3 354.796 106.321 356.449 107.79L377.205 128.178L353.694 144.709L330 121.933C328.53 120.464 327.245 117.525 327.245 115.505V78.7692L345.429 69.769L340.469 65.3608L365.266 48.0951L399.797 80.4223ZM370.409 91.8103L353.694 76.9324V100.81L370.409 91.8103ZM440.71 81.3407L462.567 65.9118L440.526 48.8298L430.056 56.5443L419.587 48.8298L398.097 66.0955L403.607 69.4017C405.444 70.5037 406.913 73.0752 406.913 75.2793V128.546C406.913 130.75 408.383 133.321 410.036 134.423L427.301 145.444L446.587 124.505L436.669 119.913C434.832 118.994 433.363 116.423 433.363 114.403V75.6467L440.71 81.3407ZM560.888 46.4421H586.497C588.701 46.4421 592.374 43.3196 592.374 43.3196L572.354 20.1763L560.081 20.1763L557.949 18.1982L548.765 10.4838L533.617 20.1763L524.781 20.1763L499.618 20.1763H485.474C483.454 20.1763 480.515 21.462 479.229 23.1151L471.515 32.299L488.781 53.7892L492.087 49.5646C493.373 47.9115 495.577 46.4421 497.046 46.4421H499.434L524.781 46.4421H534.622V125.466C534.622 127.67 535.908 130.241 537.745 131.343L554.827 142.364L574.113 121.425L564.378 116.833C562.541 115.914 560.888 113.527 560.888 111.322V46.4421ZM615.777 81.3407L637.634 65.9118L615.593 48.8298L605.124 56.5443L594.654 48.8298L573.164 66.0955L578.674 69.4017C580.511 70.5037 581.98 73.0752 581.98 75.2793V128.546C581.98 130.75 583.45 133.321 585.103 134.423L602.368 145.444L621.655 124.505L611.736 119.913C609.899 118.994 608.43 116.423 608.43 114.403V75.6467L615.777 81.3407ZM669.972 107.79L680.441 117.892V65.7281L706.891 53.7891V113.668C706.891 115.872 708.36 118.26 710.381 119.178L720.115 123.77L700.829 144.709L683.38 133.505L667.217 144.709L643.706 121.933C642.053 120.464 640.951 117.525 640.951 115.505V82.4427C640.767 80.4223 639.298 77.8508 637.461 76.5651L633.971 74.3609L652.89 53.7891L664.278 63.1566C665.931 64.4424 667.217 67.1975 667.217 69.4017V101.361C667.217 103.382 668.502 106.321 669.972 107.79ZM745.687 107.79C744.034 106.321 742.932 103.382 742.932 101.361V76.9324L756.34 88.6878L778.932 70.8711L754.503 48.0951L729.707 65.3608L734.666 69.769L716.482 78.7692V115.505C716.482 117.525 717.768 120.464 719.237 121.933L742.932 144.709L766.626 128.178L745.687 107.79ZM780.897 144.709V32.1152C780.897 29.9111 779.428 27.1559 777.775 25.8702L773.55 22.564L795.04 5.29837L804.224 13.0128C805.877 14.2986 807.163 17.2374 807.163 19.2578V57.279L818.367 49.0135L838.755 66.6465L824.98 76.7487L844.082 94.7491C845.551 96.2185 846.837 98.9737 846.837 101.178V136.444C846.837 138.648 848.307 141.036 850.327 141.954L860.062 146.546L840.776 167.485L823.694 156.465C821.857 155.363 820.388 152.791 820.388 150.587V115.321C820.388 113.117 819.102 110.362 817.633 108.892L807.163 99.8921V131.485L780.897 144.709ZM857.676 82.0754V127.811C857.676 129.831 859.146 132.587 860.982 133.689L878.064 144.709L897.35 123.77L887.616 118.994C885.595 118.26 884.126 115.688 884.126 113.668V72.1568L893.126 65.5445L870.901 49.1972L849.411 65.1771L864.472 76.5651L857.676 82.0754ZM942.902 48.2788L968.066 71.7895C969.719 73.2589 971.005 76.1977 971.005 78.2182V113.668C971.005 115.688 972.474 118.076 974.311 118.994L984.23 123.77L964.944 144.709L947.678 133.689C946.025 132.587 944.555 129.831 944.555 127.811V92.545C944.555 90.3409 943.27 87.5857 941.617 86.1163L931.514 77.1161V131.668L905.065 144.709V77.8508C905.065 75.8304 903.779 72.8915 902.126 71.6058L895.33 65.5445L920.126 48.2788L929.861 57.279L942.902 48.2788ZM1049.1 71.7895L1023.93 48.0951L999.138 65.3608L1004.1 69.5854L985.913 78.7692V115.321C985.913 117.525 987.199 120.464 988.668 121.933L1012.36 144.709L1025.59 135.342V140.696L1022.93 146.334C1022.01 148.17 1019.62 149.824 1017.42 149.824H969.845H944.681L930.538 149.824C928.518 149.824 925.579 151.109 924.293 152.762L916.579 161.946L933.844 183.436L937.15 179.212C938.436 177.559 940.64 176.089 942.11 176.089H944.497H969.845H1031.56C1032.85 176.089 1034.27 175.646 1035.45 174.909L1038.32 177.036L1060.18 161.056L1037.95 144.709L1037.05 145.375L1032.53 141.214L1051.85 131.485V78.2182C1051.85 76.1977 1050.57 73.2589 1049.1 71.7895ZM1012.36 101.178V76.9324L1022.65 86.1163C1024.3 87.402 1025.59 90.3409 1025.59 92.3613V117.892L1015.12 107.79C1013.46 106.321 1012.36 103.382 1012.36 101.178ZM123.588 23.4672L135.194 14.016L148.314 23.4672L135.194 33.4434L123.588 23.4672ZM659.733 14.016L648.128 23.4672L659.733 33.4434L672.853 23.4672L659.733 14.016ZM155.379 23.4672L166.985 14.016L180.104 23.4672L166.985 33.4434L155.379 23.4672ZM691.524 14.016L679.918 23.4672L691.524 33.4434L704.644 23.4672L691.524 14.016Z"/>
</mask>
<path fill-rule="evenodd" clip-rule="evenodd" d="M244.188 32.1152V40.9317H225.001V26.7886C225.001 24.7681 223.715 21.8293 222.062 20.5436L212.878 12.8291L191.388 30.0948L195.613 33.401C197.266 34.6867 198.735 36.8908 198.735 38.3602V40.748L186.796 52.8707L198.735 66.0955V127.811C198.735 130.015 200.021 132.587 201.858 133.689L218.94 144.709L238.226 123.77L228.491 119.178C226.654 118.26 225.001 115.872 225.001 113.668V66.0955L244.188 44.8968V144.709L270.454 131.485V76.9324L280.74 85.9326C282.393 87.402 283.679 90.1572 283.679 92.3613V127.627C283.679 129.831 285.148 132.403 286.985 133.505L304.067 144.526L323.353 123.586L313.618 118.994C311.598 118.076 310.128 115.688 310.128 113.484V78.2182C310.128 76.014 308.842 73.2589 307.373 71.7895L282.026 47.9115L270.454 55.9932V19.2578C270.454 17.2374 269.168 14.2986 267.515 13.0128L258.331 5.29837L236.841 22.564L241.066 25.8702C242.719 27.1559 244.188 29.9111 244.188 32.1152ZM109.672 113.484V46.3149C109.672 44.1108 108.386 41.3556 106.733 39.8862L79.5487 14.3551L56.9565 30.1513L40.0582 14.3551L15.2618 31.6207L20.4047 36.2126L4.05746 45.0291V144.709L30.507 131.485V45.0291L40.7929 54.0293C42.2623 55.4987 43.548 58.2539 43.548 60.458V144.709L69.9975 131.485V45.0291L80.2834 54.0293C81.7529 55.4987 83.0386 58.2539 83.0386 60.2743V127.627C83.0386 129.648 84.508 132.403 86.3448 133.505L103.427 144.526L122.713 123.586L109.446 118.994C108.289 118.416 108.679 117.254 109.126 115.923C109.389 115.141 109.672 114.3 109.672 113.484ZM141.041 69.769L122.857 78.7692V115.505C122.857 117.709 124.143 120.464 125.612 121.933L149.306 144.893L188.797 115.137V78.4018C188.797 76.1977 187.511 73.4426 186.042 71.9732L160.878 48.2788L136.082 65.3608L141.041 69.769ZM152.062 107.79C150.409 106.321 149.306 103.566 149.306 101.361V77.1161L159.592 86.1163C161.245 87.5857 162.531 90.3409 162.531 92.545V118.076L152.062 107.79ZM399.797 80.4223L357 103.382C355.164 104.3 354.796 106.321 356.449 107.79L377.205 128.178L353.694 144.709L330 121.933C328.53 120.464 327.245 117.525 327.245 115.505V78.7692L345.429 69.769L340.469 65.3608L365.266 48.0951L399.797 80.4223ZM370.409 91.8103L353.694 76.9324V100.81L370.409 91.8103ZM440.71 81.3407L462.567 65.9118L440.526 48.8298L430.056 56.5443L419.587 48.8298L398.097 66.0955L403.607 69.4017C405.444 70.5037 406.913 73.0752 406.913 75.2793V128.546C406.913 130.75 408.383 133.321 410.036 134.423L427.301 145.444L446.587 124.505L436.669 119.913C434.832 118.994 433.363 116.423 433.363 114.403V75.6467L440.71 81.3407ZM560.888 46.4421H586.497C588.701 46.4421 592.374 43.3196 592.374 43.3196L572.354 20.1763L560.081 20.1763L557.949 18.1982L548.765 10.4838L533.617 20.1763L524.781 20.1763L499.618 20.1763H485.474C483.454 20.1763 480.515 21.462 479.229 23.1151L471.515 32.299L488.781 53.7892L492.087 49.5646C493.373 47.9115 495.577 46.4421 497.046 46.4421H499.434L524.781 46.4421H534.622V125.466C534.622 127.67 535.908 130.241 537.745 131.343L554.827 142.364L574.113 121.425L564.378 116.833C562.541 115.914 560.888 113.527 560.888 111.322V46.4421ZM615.777 81.3407L637.634 65.9118L615.593 48.8298L605.124 56.5443L594.654 48.8298L573.164 66.0955L578.674 69.4017C580.511 70.5037 581.98 73.0752 581.98 75.2793V128.546C581.98 130.75 583.45 133.321 585.103 134.423L602.368 145.444L621.655 124.505L611.736 119.913C609.899 118.994 608.43 116.423 608.43 114.403V75.6467L615.777 81.3407ZM669.972 107.79L680.441 117.892V65.7281L706.891 53.7891V113.668C706.891 115.872 708.36 118.26 710.381 119.178L720.115 123.77L700.829 144.709L683.38 133.505L667.217 144.709L643.706 121.933C642.053 120.464 640.951 117.525 640.951 115.505V82.4427C640.767 80.4223 639.298 77.8508 637.461 76.5651L633.971 74.3609L652.89 53.7891L664.278 63.1566C665.931 64.4424 667.217 67.1975 667.217 69.4017V101.361C667.217 103.382 668.502 106.321 669.972 107.79ZM745.687 107.79C744.034 106.321 742.932 103.382 742.932 101.361V76.9324L756.34 88.6878L778.932 70.8711L754.503 48.0951L729.707 65.3608L734.666 69.769L716.482 78.7692V115.505C716.482 117.525 717.768 120.464 719.237 121.933L742.932 144.709L766.626 128.178L745.687 107.79ZM780.897 144.709V32.1152C780.897 29.9111 779.428 27.1559 777.775 25.8702L773.55 22.564L795.04 5.29837L804.224 13.0128C805.877 14.2986 807.163 17.2374 807.163 19.2578V57.279L818.367 49.0135L838.755 66.6465L824.98 76.7487L844.082 94.7491C845.551 96.2185 846.837 98.9737 846.837 101.178V136.444C846.837 138.648 848.307 141.036 850.327 141.954L860.062 146.546L840.776 167.485L823.694 156.465C821.857 155.363 820.388 152.791 820.388 150.587V115.321C820.388 113.117 819.102 110.362 817.633 108.892L807.163 99.8921V131.485L780.897 144.709ZM857.676 82.0754V127.811C857.676 129.831 859.146 132.587 860.982 133.689L878.064 144.709L897.35 123.77L887.616 118.994C885.595 118.26 884.126 115.688 884.126 113.668V72.1568L893.126 65.5445L870.901 49.1972L849.411 65.1771L864.472 76.5651L857.676 82.0754ZM942.902 48.2788L968.066 71.7895C969.719 73.2589 971.005 76.1977 971.005 78.2182V113.668C971.005 115.688 972.474 118.076 974.311 118.994L984.23 123.77L964.944 144.709L947.678 133.689C946.025 132.587 944.555 129.831 944.555 127.811V92.545C944.555 90.3409 943.27 87.5857 941.617 86.1163L931.514 77.1161V131.668L905.065 144.709V77.8508C905.065 75.8304 903.779 72.8915 902.126 71.6058L895.33 65.5445L920.126 48.2788L929.861 57.279L942.902 48.2788ZM1049.1 71.7895L1023.93 48.0951L999.138 65.3608L1004.1 69.5854L985.913 78.7692V115.321C985.913 117.525 987.199 120.464 988.668 121.933L1012.36 144.709L1025.59 135.342V140.696L1022.93 146.334C1022.01 148.17 1019.62 149.824 1017.42 149.824H969.845H944.681L930.538 149.824C928.518 149.824 925.579 151.109 924.293 152.762L916.579 161.946L933.844 183.436L937.15 179.212C938.436 177.559 940.64 176.089 942.11 176.089H944.497H969.845H1031.56C1032.85 176.089 1034.27 175.646 1035.45 174.909L1038.32 177.036L1060.18 161.056L1037.95 144.709L1037.05 145.375L1032.53 141.214L1051.85 131.485V78.2182C1051.85 76.1977 1050.57 73.2589 1049.1 71.7895ZM1012.36 101.178V76.9324L1022.65 86.1163C1024.3 87.402 1025.59 90.3409 1025.59 92.3613V117.892L1015.12 107.79C1013.46 106.321 1012.36 103.382 1012.36 101.178ZM123.588 23.4672L135.194 14.016L148.314 23.4672L135.194 33.4434L123.588 23.4672ZM659.733 14.016L648.128 23.4672L659.733 33.4434L672.853 23.4672L659.733 14.016ZM155.379 23.4672L166.985 14.016L180.104 23.4672L166.985 33.4434L155.379 23.4672ZM691.524 14.016L679.918 23.4672L691.524 33.4434L704.644 23.4672L691.524 14.016Z" fill="#424242"/>
<path d="M1037.95 144.709H1035.95V147.955L1038.85 146.495L1037.95 144.709ZM1035.95 138.484V144.709H1039.95V138.484H1035.95ZM1038.85 146.495L1065.12 133.27L1063.32 129.698L1037.05 142.922L1038.85 146.495ZM244.188 40.9317V44.9317H248.188V40.9317H244.188ZM225.001 40.9317H221.001V44.9317H225.001V40.9317ZM222.062 20.5436L219.489 23.6064L219.547 23.6548L219.606 23.701L222.062 20.5436ZM212.878 12.8291L215.451 9.76631L212.935 7.65267L210.373 9.71086L212.878 12.8291ZM191.388 30.0948L188.883 26.9765L184.95 30.1359L188.923 33.2448L191.388 30.0948ZM195.613 33.401L193.147 36.551L193.157 36.5584L195.613 33.401ZM198.735 40.748L201.585 43.5548L202.735 42.387V40.748H198.735ZM186.796 52.8707L183.946 50.064L181.3 52.7514L183.827 55.5512L186.796 52.8707ZM198.735 66.0955H202.735V64.557L201.704 63.4151L198.735 66.0955ZM201.858 133.689L204.026 130.327L203.972 130.292L203.916 130.259L201.858 133.689ZM218.94 144.709L216.771 148.07L219.601 149.896L221.882 147.419L218.94 144.709ZM238.226 123.77L241.168 126.48L244.857 122.475L239.932 120.152L238.226 123.77ZM228.491 119.178L226.702 122.756L226.743 122.776L226.784 122.796L228.491 119.178ZM225.001 66.0955L222.035 63.4113L221.001 64.5541V66.0955H225.001ZM244.188 44.8968H248.188V34.5167L241.223 42.2126L244.188 44.8968ZM244.188 144.709H240.188V151.202L245.987 148.282L244.188 144.709ZM270.454 131.485L272.253 135.057L274.454 133.949V131.485H270.454ZM270.454 76.9324L273.088 73.9221L266.454 68.1174V76.9324H270.454ZM280.74 85.9326L283.397 82.943L283.386 82.9326L283.374 82.9223L280.74 85.9326ZM286.985 133.505L289.153 130.144L289.099 130.108L289.043 130.075L286.985 133.505ZM304.067 144.526L301.898 147.887L304.728 149.712L307.009 147.235L304.067 144.526ZM323.353 123.586L326.295 126.296L329.984 122.291L325.059 119.969L323.353 123.586ZM313.618 118.994L315.325 115.377L315.299 115.365L315.273 115.353L313.618 118.994ZM307.373 71.7895L310.202 68.961L310.159 68.9188L310.116 68.8779L307.373 71.7895ZM282.026 47.9115L284.768 44.9999L282.401 42.7701L279.735 44.6321L282.026 47.9115ZM270.454 55.9932H266.454V63.6659L272.744 59.2726L270.454 55.9932ZM267.515 13.0128L264.942 16.0756L265 16.124L265.059 16.1702L267.515 13.0128ZM258.331 5.29837L260.904 2.23555L258.388 0.121903L255.826 2.1801L258.331 5.29837ZM236.841 22.564L234.336 19.4458L230.403 22.6051L234.376 25.714L236.841 22.564ZM241.066 25.8702L238.6 29.0202L238.61 29.0276L241.066 25.8702ZM106.733 39.8862L103.995 42.8019L104.035 42.8394L104.075 42.8758L106.733 39.8862ZM79.5487 14.3551L82.2871 11.4394L79.9191 9.21536L77.2567 11.0769L79.5487 14.3551ZM56.9565 30.1513L54.2249 33.0734L56.5925 35.2866L59.2485 33.4295L56.9565 30.1513ZM40.0582 14.3551L42.7897 11.433L40.4269 9.22421L37.7725 11.0724L40.0582 14.3551ZM15.2618 31.6207L12.9761 28.3381L8.82027 31.2318L12.5977 34.6045L15.2618 31.6207ZM20.4047 36.2126L22.3035 39.7333L27.3222 37.0265L23.0688 33.2289L20.4047 36.2126ZM4.05746 45.0291L2.15871 41.5085L0.0574646 42.6418V45.0291H4.05746ZM4.05746 144.709H0.0574646V151.181L5.84632 148.287L4.05746 144.709ZM30.507 131.485L32.2958 135.062L34.507 133.957V131.485H30.507ZM30.507 45.0291L33.141 42.0188L26.507 36.2141V45.0291H30.507ZM40.7929 54.0293L43.6213 51.2009L43.5271 51.1067L43.4269 51.019L40.7929 54.0293ZM43.548 144.709H39.548V151.181L45.3369 148.287L43.548 144.709ZM69.9975 131.485L71.7864 135.062L73.9975 133.957V131.485H69.9975ZM69.9975 45.0291L72.6315 42.0188L65.9975 36.2141V45.0291H69.9975ZM80.2834 54.0293L83.1119 51.2009L83.0177 51.1067L82.9175 51.019L80.2834 54.0293ZM86.3448 133.505L88.5133 130.144L88.4586 130.108L88.4028 130.075L86.3448 133.505ZM103.427 144.526L101.258 147.887L104.088 149.712L106.369 147.235L103.427 144.526ZM122.713 123.586L125.655 126.296L129.793 121.804L124.021 119.806L122.713 123.586ZM109.446 118.994L107.657 122.572L107.891 122.689L108.137 122.774L109.446 118.994ZM109.126 115.923L105.335 114.649L105.335 114.649L109.126 115.923ZM122.857 78.7692L121.083 75.1843L118.857 76.2859V78.7692H122.857ZM141.041 69.769L142.815 73.3539L148.134 70.7217L143.698 66.7794L141.041 69.769ZM125.612 121.933L122.784 124.762L122.806 124.784L122.829 124.806L125.612 121.933ZM149.306 144.893L146.523 147.766L148.981 150.147L151.714 148.088L149.306 144.893ZM188.797 115.137L191.204 118.332L192.797 117.132V115.137H188.797ZM186.042 71.9732L188.87 69.1447L188.828 69.1022L188.784 69.061L186.042 71.9732ZM160.878 48.2788L163.62 45.3666L161.269 43.1524L158.609 44.9848L160.878 48.2788ZM136.082 65.3608L133.813 62.0667L129.611 64.961L133.424 68.3504L136.082 65.3608ZM152.062 107.79L154.865 104.937L154.794 104.867L154.719 104.801L152.062 107.79ZM149.306 77.1161L151.941 74.1058L145.306 68.301V77.1161H149.306ZM159.592 86.1163L162.25 83.1266L162.238 83.1163L162.226 83.106L159.592 86.1163ZM162.531 118.076L159.728 120.929L166.531 127.613V118.076H162.531ZM357 103.382L358.789 106.96L358.841 106.934L358.891 106.907L357 103.382ZM399.797 80.4223L401.688 83.9471L406.6 81.3118L402.531 77.5022L399.797 80.4223ZM356.449 107.79L359.252 104.937L359.181 104.867L359.107 104.801L356.449 107.79ZM377.205 128.178L379.505 131.45L383.433 128.689L380.008 125.325L377.205 128.178ZM353.694 144.709L350.922 147.593L353.298 149.877L355.995 147.981L353.694 144.709ZM330 121.933L327.171 124.762L327.199 124.79L327.228 124.817L330 121.933ZM327.245 78.7692L325.47 75.1843L323.245 76.2859V78.7692H327.245ZM345.429 69.769L347.203 73.3539L352.521 70.7217L348.086 66.7794L345.429 69.769ZM340.469 65.3608L338.184 62.0781L334.018 64.9784L337.812 68.3504L340.469 65.3608ZM365.266 48.0951L367.999 45.175L365.636 42.9629L362.98 44.8125L365.266 48.0951ZM353.694 76.9324L356.354 73.9446L349.694 68.0169V76.9324H353.694ZM370.409 91.8103L372.305 95.3321L377.337 92.6225L373.068 88.8224L370.409 91.8103ZM353.694 100.81H349.694V107.507L355.591 104.332L353.694 100.81ZM462.567 65.9118L464.874 69.1797L469.291 66.0619L465.018 62.7501L462.567 65.9118ZM440.71 81.3407L438.259 84.5023L440.599 86.3152L443.016 84.6085L440.71 81.3407ZM440.526 48.8298L442.976 45.6682L440.587 43.8164L438.153 45.6096L440.526 48.8298ZM430.056 56.5443L427.684 59.7645L430.056 61.5129L432.429 59.7645L430.056 56.5443ZM419.587 48.8298L421.96 45.6096L419.481 43.7835L417.082 45.7116L419.587 48.8298ZM398.097 66.0955L395.591 62.9772L391.117 66.5723L396.039 69.5254L398.097 66.0955ZM403.607 69.4017L401.549 72.8316L401.549 72.8317L403.607 69.4017ZM410.036 134.423L407.817 137.752L407.85 137.774L407.883 137.795L410.036 134.423ZM427.301 145.444L425.149 148.816L427.973 150.618L430.243 148.154L427.301 145.444ZM446.587 124.505L449.53 127.215L453.246 123.18L448.268 120.875L446.587 124.505ZM436.669 119.913L434.88 123.491L434.934 123.517L434.988 123.543L436.669 119.913ZM433.363 75.6467L435.813 72.485L429.363 67.4861V75.6467H433.363ZM560.888 46.4421V42.4421H556.888V46.4421H560.888ZM592.374 43.3196L594.965 46.3674L598.039 43.7542L595.4 40.7026L592.374 43.3196ZM572.354 20.1763L575.379 17.5593L574.182 16.1763H572.354V20.1763ZM560.081 20.1763L557.36 23.1085L558.511 24.1763L560.081 24.1763V20.1763ZM557.949 18.1982L560.67 15.266L560.598 15.1989L560.522 15.1354L557.949 18.1982ZM548.765 10.4838L551.338 7.42096L549.086 5.5296L546.609 7.11443L548.765 10.4838ZM533.617 20.1763V24.1763H534.787L535.772 23.5456L533.617 20.1763ZM524.781 20.1763V24.1763V24.1763V20.1763ZM499.618 20.1763V24.1763V20.1763ZM479.229 23.1151L482.292 25.6879L482.341 25.6303L482.387 25.5709L479.229 23.1151ZM471.515 32.299L468.452 29.7262L466.339 32.2425L468.397 34.8043L471.515 32.299ZM488.781 53.7892L485.662 56.2945L488.822 60.2269L491.931 56.2544L488.781 53.7892ZM492.087 49.5646L495.237 52.0299L495.244 52.0204L492.087 49.5646ZM499.434 46.4421V50.4421V46.4421ZM524.781 46.4421V42.4421V46.4421ZM534.622 46.4421H538.622V42.4421H534.622V46.4421ZM537.745 131.343L539.913 127.982L539.858 127.947L539.803 127.913L537.745 131.343ZM554.827 142.364L552.658 145.725L555.488 147.551L557.769 145.074L554.827 142.364ZM574.113 121.425L577.055 124.135L580.743 120.13L575.819 117.807L574.113 121.425ZM564.378 116.833L562.589 120.411L562.63 120.431L562.671 120.451L564.378 116.833ZM637.634 65.9118L639.941 69.1797L644.358 66.0619L640.085 62.7501L637.634 65.9118ZM615.777 81.3407L613.327 84.5023L615.666 86.3152L618.084 84.6085L615.777 81.3407ZM615.593 48.8298L618.043 45.6682L615.654 43.8164L613.22 45.6096L615.593 48.8298ZM605.124 56.5443L602.751 59.7645L605.124 61.5129L607.496 59.7645L605.124 56.5443ZM594.654 48.8298L597.027 45.6096L594.549 43.7835L592.149 45.7116L594.654 48.8298ZM573.164 66.0955L570.659 62.9772L566.184 66.5723L571.106 69.5255L573.164 66.0955ZM578.674 69.4017L576.616 72.8316V72.8317L578.674 69.4017ZM585.103 134.423L582.884 137.752L582.917 137.774L582.951 137.795L585.103 134.423ZM602.368 145.444L600.216 148.816L603.041 150.618L605.311 148.154L602.368 145.444ZM621.655 124.505L624.597 127.215L628.313 123.18L623.335 120.875L621.655 124.505ZM611.736 119.913L609.947 123.491L610.001 123.517L610.056 123.543L611.736 119.913ZM608.43 75.6467L610.88 72.485L604.43 67.486V75.6467H608.43ZM680.441 117.892L677.664 120.771L684.441 127.311V117.892H680.441ZM669.972 107.79L667.143 110.619L667.168 110.644L667.194 110.669L669.972 107.79ZM680.441 65.7281L678.796 62.0823L676.441 63.1451V65.7281H680.441ZM706.891 53.7891H710.891V47.5949L705.245 50.1433L706.891 53.7891ZM710.381 119.178L712.087 115.56L712.061 115.548L712.036 115.537L710.381 119.178ZM720.115 123.77L723.058 126.48L726.746 122.475L721.822 120.152L720.115 123.77ZM700.829 144.709L698.668 148.075L701.495 149.89L703.772 147.419L700.829 144.709ZM683.38 133.505L685.541 130.139L683.295 128.697L681.101 130.218L683.38 133.505ZM667.217 144.709L664.433 147.582L666.794 149.869L669.495 147.997L667.217 144.709ZM643.706 121.933L646.489 119.06L646.427 119.001L646.363 118.944L643.706 121.933ZM640.951 82.4427H644.951V82.2613L644.934 82.0806L640.951 82.4427ZM637.461 76.5651L639.755 73.2882L639.677 73.2338L639.597 73.1831L637.461 76.5651ZM633.971 74.3609L631.027 71.6533L627.781 75.1826L631.835 77.7429L633.971 74.3609ZM652.89 53.7891L655.431 50.7L652.508 48.2954L649.945 51.0815L652.89 53.7891ZM664.278 63.1566L661.737 66.2458L661.779 66.2805L661.822 66.314L664.278 63.1566ZM745.687 107.79L748.477 104.924L748.412 104.861L748.344 104.8L745.687 107.79ZM742.932 76.9324L745.569 73.9247L738.932 68.106V76.9324H742.932ZM756.34 88.6878L753.703 91.6955L756.205 93.8887L758.817 91.8286L756.34 88.6878ZM778.932 70.8711L781.409 74.0119L785.07 71.1248L781.66 67.9454L778.932 70.8711ZM754.503 48.0951L757.231 45.1694L754.868 42.9667L752.218 44.8125L754.503 48.0951ZM729.707 65.3608L727.421 62.0781L723.256 64.9784L727.049 68.3504L729.707 65.3608ZM734.666 69.769L736.44 73.3539L741.759 70.7217L737.324 66.7794L734.666 69.769ZM716.482 78.7692L714.708 75.1843L712.482 76.2859V78.7692H716.482ZM719.237 121.933L716.409 124.762L716.437 124.79L716.465 124.817L719.237 121.933ZM742.932 144.709L740.16 147.593L742.527 149.869L745.22 147.99L742.932 144.709ZM766.626 128.178L768.915 131.459L772.884 128.689L769.416 125.312L766.626 128.178ZM780.897 144.709H776.897V151.202L782.696 148.282L780.897 144.709ZM777.775 25.8702L775.309 29.0203L775.319 29.0276L777.775 25.8702ZM773.55 22.564L771.045 19.4458L767.112 22.6052L771.085 25.7141L773.55 22.564ZM795.04 5.29837L797.613 2.23555L795.097 0.12191L792.535 2.1801L795.04 5.29837ZM804.224 13.0128L801.651 16.0756L801.709 16.124L801.768 16.1702L804.224 13.0128ZM807.163 57.279H803.163V65.2004L809.538 60.4979L807.163 57.279ZM818.367 49.0135L820.984 45.9881L818.566 43.8966L815.993 45.7946L818.367 49.0135ZM838.755 66.6465L841.121 69.8721L845.168 66.9042L841.372 63.6211L838.755 66.6465ZM824.98 76.7487L822.614 73.5231L818.739 76.3646L822.236 79.6599L824.98 76.7487ZM844.082 94.7491L846.91 91.9207L846.868 91.8787L846.825 91.8379L844.082 94.7491ZM850.327 141.954L852.034 138.336L852.008 138.324L851.982 138.313L850.327 141.954ZM860.062 146.546L863.004 149.256L866.693 145.251L861.768 142.928L860.062 146.546ZM840.776 167.485L838.607 170.846L841.437 172.672L843.718 170.195L840.776 167.485ZM823.694 156.465L825.862 153.103L825.808 153.068L825.752 153.035L823.694 156.465ZM817.633 108.892L820.461 106.064L820.354 105.957L820.24 105.859L817.633 108.892ZM807.163 99.8921L809.77 96.8588L803.163 91.1786V99.8921H807.163ZM807.163 131.485L808.962 135.057L811.163 133.949V131.485H807.163ZM857.676 82.0754L855.157 78.9684L853.676 80.169V82.0754H857.676ZM860.982 133.689L863.151 130.327L863.096 130.292L863.04 130.259L860.982 133.689ZM878.064 144.709L875.896 148.07L878.725 149.896L881.006 147.419L878.064 144.709ZM897.35 123.77L900.293 126.48L903.923 122.539L899.112 120.179L897.35 123.77ZM887.616 118.994L889.377 115.403L889.184 115.309L888.983 115.235L887.616 118.994ZM884.126 72.1568L881.757 68.9333L880.126 70.1321V72.1568H884.126ZM893.126 65.5445L895.494 68.768L899.879 65.5463L895.496 62.3222L893.126 65.5445ZM870.901 49.1972L873.271 45.975L870.888 44.2222L868.514 45.9873L870.901 49.1972ZM849.411 65.1771L847.024 61.9673L842.743 65.1504L846.998 68.3677L849.411 65.1771ZM864.472 76.5651L866.991 79.6721L870.959 76.4551L866.885 73.3744L864.472 76.5651ZM968.066 71.7895L965.335 74.7123L965.372 74.7461L965.409 74.7791L968.066 71.7895ZM942.902 48.2788L945.633 45.356L943.28 43.1578L940.63 44.9867L942.902 48.2788ZM974.311 118.994L972.522 122.572L972.549 122.586L972.576 122.598L974.311 118.994ZM984.23 123.77L987.172 126.48L990.83 122.508L985.965 120.166L984.23 123.77ZM964.944 144.709L962.791 148.081L965.616 149.884L967.886 147.419L964.944 144.709ZM947.678 133.689L945.459 137.017L945.492 137.039L945.526 137.06L947.678 133.689ZM941.617 86.1163L938.956 89.1029L938.959 89.1059L941.617 86.1163ZM931.514 77.1161L934.175 74.1294L927.514 68.1953V77.1161H931.514ZM931.514 131.668L933.283 135.256L935.514 134.156V131.668H931.514ZM905.065 144.709H901.065V151.141L906.834 148.297L905.065 144.709ZM902.126 71.6058L899.464 74.591L899.564 74.6806L899.67 74.7632L902.126 71.6058ZM895.33 65.5445L893.044 62.2618L888.886 65.1571L892.667 68.5296L895.33 65.5445ZM920.126 48.2788L922.842 45.3417L920.48 43.1583L917.841 44.9962L920.126 48.2788ZM929.861 57.279L927.146 60.2161L929.497 62.3902L932.133 60.5711L929.861 57.279ZM1023.93 48.0951L1026.68 45.183L1024.31 42.9574L1021.65 44.8125L1023.93 48.0951ZM1049.1 71.7895L1051.93 68.9611L1051.88 68.9185L1051.84 68.8773L1049.1 71.7895ZM999.138 65.3608L996.852 62.0781L992.595 65.0421L996.544 68.4058L999.138 65.3608ZM1004.1 69.5854L1005.9 73.1558L1011.27 70.4428L1006.69 66.5404L1004.1 69.5854ZM985.913 78.7692L984.11 75.1987L981.913 76.3082V78.7692H985.913ZM988.668 121.933L985.84 124.762L985.868 124.79L985.896 124.817L988.668 121.933ZM1012.36 144.709L1009.59 147.593L1011.98 149.885L1014.67 147.973L1012.36 144.709ZM1025.59 135.342H1029.59V127.607L1023.27 132.078L1025.59 135.342ZM1025.59 140.696L1029.2 142.402L1029.59 141.592V140.696H1025.59ZM1022.93 146.334L1026.51 148.123L1026.53 148.082L1026.55 148.04L1022.93 146.334ZM944.681 149.824V145.824V149.824ZM930.538 149.824V153.824V149.824ZM924.293 152.762L927.356 155.335L927.404 155.278L927.45 155.218L924.293 152.762ZM916.579 161.946L913.516 159.373L911.402 161.89L913.46 164.452L916.579 161.946ZM933.844 183.436L930.726 185.942L933.885 189.874L936.994 185.902L933.844 183.436ZM937.15 179.212L940.3 181.677L940.308 181.668L937.15 179.212ZM1035.45 174.909L1037.83 171.696L1035.64 170.069L1033.32 171.521L1035.45 174.909ZM1038.32 177.036L1035.94 180.249L1038.3 182.003L1040.68 180.265L1038.32 177.036ZM1060.18 161.056L1062.54 164.285L1066.94 161.066L1062.55 157.834L1060.18 161.056ZM1037.95 144.709L1040.32 141.487L1037.95 139.741L1035.58 141.489L1037.95 144.709ZM1037.05 145.375L1034.34 148.317L1036.77 150.553L1039.42 148.594L1037.05 145.375ZM1032.53 141.214L1030.73 137.641L1025.57 140.24L1029.82 144.156L1032.53 141.214ZM1051.85 131.485L1053.65 135.057L1055.85 133.949V131.485H1051.85ZM1012.36 76.9324L1015.03 73.9487L1008.36 67.9986V76.9324H1012.36ZM1022.65 86.1163L1019.98 89.1L1020.09 89.1904L1020.19 89.2737L1022.65 86.1163ZM1025.59 117.892L1022.81 120.771L1029.59 127.311V117.892H1025.59ZM1015.12 107.79L1017.89 104.912L1017.84 104.855L1017.77 104.8L1015.12 107.79ZM135.194 14.016L137.532 10.7705L135.045 8.97887L132.668 10.9144L135.194 14.016ZM123.588 23.4672L121.062 20.3655L117.355 23.3843L120.981 26.5006L123.588 23.4672ZM148.314 23.4672L150.735 26.6512L155.037 23.3803L150.652 20.2216L148.314 23.4672ZM135.194 33.4434L132.587 36.4768L135.04 38.5856L137.615 36.6275L135.194 33.4434ZM648.128 23.4672L645.602 20.3655L641.895 23.3843L645.52 26.5006L648.128 23.4672ZM659.733 14.016L662.072 10.7705L659.584 8.97887L657.208 10.9144L659.733 14.016ZM659.733 33.4434L657.126 36.4768L659.579 38.5856L662.155 36.6275L659.733 33.4434ZM672.853 23.4672L675.274 26.6512L679.576 23.3803L675.191 20.2216L672.853 23.4672ZM166.985 14.016L169.323 10.7705L166.835 8.97887L164.459 10.9144L166.985 14.016ZM155.379 23.4672L152.853 20.3655L149.146 23.3843L152.771 26.5006L155.379 23.4672ZM180.104 23.4672L182.525 26.6512L186.827 23.3803L182.442 20.2216L180.104 23.4672ZM166.985 33.4434L164.377 36.4768L166.83 38.5856L169.406 36.6275L166.985 33.4434ZM679.918 23.4672L677.392 20.3655L673.685 23.3843L677.31 26.5006L679.918 23.4672ZM691.524 14.016L693.862 10.7705L691.375 8.97887L688.998 10.9144L691.524 14.016ZM691.524 33.4434L688.916 36.4768L691.37 38.5856L693.945 36.6275L691.524 33.4434ZM704.644 23.4672L707.065 26.6512L711.366 23.3803L706.982 20.2216L704.644 23.4672ZM248.188 40.9317V32.1152H240.188V40.9317H248.188ZM225.001 44.9317H244.188V36.9317H225.001V44.9317ZM221.001 26.7886V40.9317H229.001V26.7886H221.001ZM219.606 23.701C219.753 23.815 220.147 24.257 220.518 25.0622C220.882 25.8547 221.001 26.5161 221.001 26.7886H229.001C229.001 25.0406 228.477 23.2224 227.786 21.7189C227.1 20.2282 226.024 18.5579 224.518 17.3862L219.606 23.701ZM210.306 15.892L219.489 23.6064L224.635 17.4807L215.451 9.76631L210.306 15.892ZM193.893 33.213L215.384 15.9474L210.373 9.71086L188.883 26.9765L193.893 33.213ZM198.078 30.251L193.853 26.9448L188.923 33.2448L193.148 36.551L198.078 30.251ZM202.735 38.3602C202.735 36.4934 201.891 34.7918 201.161 33.653C200.36 32.4028 199.278 31.1845 198.068 30.2436L193.157 36.5584C193.6 36.9032 194.08 37.4298 194.426 37.9704C194.594 38.2319 194.691 38.4357 194.738 38.5589C194.792 38.7041 194.735 38.6237 194.735 38.3602H202.735ZM202.735 40.748V38.3602H194.735V40.748H202.735ZM189.646 55.6775L201.585 43.5548L195.885 37.9413L183.946 50.064L189.646 55.6775ZM201.704 63.4151L189.765 50.1903L183.827 55.5512L195.766 68.7759L201.704 63.4151ZM202.735 127.811V66.0955H194.735V127.811H202.735ZM203.916 130.259C203.781 130.178 203.456 129.892 203.154 129.313C202.858 128.745 202.735 128.182 202.735 127.811H194.735C194.735 129.644 195.255 131.468 196.061 133.013C196.861 134.546 198.097 136.097 199.8 137.119L203.916 130.259ZM221.108 141.348L204.026 130.327L199.689 137.05L216.771 148.07L221.108 141.348ZM235.284 121.06L215.998 141.999L221.882 147.419L241.168 126.48L235.284 121.06ZM226.784 122.796L236.519 127.388L239.932 120.152L230.197 115.56L226.784 122.796ZM221.001 113.668C221.001 115.727 221.751 117.622 222.705 119.088C223.659 120.552 225.032 121.921 226.702 122.756L230.28 115.6C230.113 115.517 229.742 115.233 229.409 114.722C229.078 114.213 229.001 113.813 229.001 113.668H221.001ZM221.001 66.0955V113.668H229.001V66.0955H221.001ZM241.223 42.2126L222.035 63.4113L227.967 68.7797L247.154 47.5811L241.223 42.2126ZM248.188 144.709V44.8968H240.188V144.709H248.188ZM268.655 127.912L242.389 141.137L245.987 148.282L272.253 135.057L268.655 127.912ZM266.454 76.9324V131.485H274.454V76.9324H266.454ZM283.374 82.9223L273.088 73.9221L267.82 79.9427L278.106 88.9429L283.374 82.9223ZM287.679 92.3613C287.679 90.5432 287.167 88.7292 286.463 87.1998C285.758 85.666 284.723 84.1213 283.397 82.943L278.082 88.9222C278.41 89.2133 278.845 89.7809 279.195 90.5431C279.548 91.3096 279.679 91.9752 279.679 92.3613H287.679ZM287.679 127.627V92.3613H279.679V127.627H287.679ZM289.043 130.075C288.846 129.957 288.464 129.61 288.125 129.011C287.789 128.415 287.679 127.895 287.679 127.627H279.679C279.679 129.564 280.304 131.431 281.161 132.948C282.016 134.461 283.287 135.951 284.927 136.935L289.043 130.075ZM306.235 141.164L289.153 130.144L284.816 136.866L301.898 147.887L306.235 141.164ZM320.411 120.876L301.125 141.816L307.009 147.235L326.295 126.296L320.411 120.876ZM311.912 122.612L321.646 127.204L325.059 119.969L315.325 115.377L311.912 122.612ZM306.128 113.484C306.128 117.184 308.449 121.039 311.963 122.636L315.273 115.353C314.746 115.113 314.128 114.193 314.128 113.484H306.128ZM306.128 78.2182V113.484H314.128V78.2182H306.128ZM304.545 74.6179C304.856 74.9294 305.289 75.5409 305.64 76.3392C305.995 77.1448 306.128 77.8266 306.128 78.2182H314.128C314.128 76.4056 313.619 74.6078 312.963 73.1173C312.304 71.6198 311.359 70.1189 310.202 68.961L304.545 74.6179ZM279.283 50.823L304.63 74.701L310.116 68.8779L284.768 44.9999L279.283 50.823ZM272.744 59.2726L284.316 51.1908L279.735 44.6321L268.164 52.7139L272.744 59.2726ZM266.454 19.2578V55.9932H274.454V19.2578H266.454ZM265.059 16.1702C265.206 16.2843 265.6 16.7262 265.971 17.5314C266.335 18.3239 266.454 18.9854 266.454 19.2578H274.454C274.454 17.5098 273.93 15.6916 273.238 14.1882C272.553 12.6974 271.477 11.0271 269.971 9.85539L265.059 16.1702ZM255.759 8.36119L264.942 16.0756L270.088 9.95L260.904 2.23555L255.759 8.36119ZM239.346 25.6823L260.837 8.41664L255.826 2.1801L234.336 19.4458L239.346 25.6823ZM243.531 22.7202L239.306 19.414L234.376 25.714L238.6 29.0202L243.531 22.7202ZM248.188 32.1152C248.188 30.2018 247.577 28.3332 246.81 26.8304C246.041 25.3237 244.921 23.8013 243.521 22.7128L238.61 29.0276C238.863 29.2248 239.305 29.7229 239.684 30.4662C240.065 31.2135 240.188 31.8246 240.188 32.1152H248.188ZM105.672 46.3149V113.484H113.672V46.3149H105.672ZM104.075 42.8758C104.403 43.1669 104.838 43.7344 105.188 44.4966C105.541 45.2632 105.672 45.9288 105.672 46.3149H113.672C113.672 44.4968 113.16 42.6828 112.456 41.1534C111.751 39.6196 110.716 38.0749 109.39 36.8965L104.075 42.8758ZM76.8103 17.2708L103.995 42.8019L109.471 36.9705L82.2871 11.4394L76.8103 17.2708ZM59.2485 33.4295L81.8408 17.6333L77.2567 11.0769L54.6644 26.8731L59.2485 33.4295ZM37.3266 17.2772L54.2249 33.0734L59.688 27.2292L42.7897 11.433L37.3266 17.2772ZM17.5474 34.9033L42.3438 17.6377L37.7725 11.0724L12.9761 28.3381L17.5474 34.9033ZM23.0688 33.2289L17.9258 28.637L12.5977 34.6045L17.7407 39.1964L23.0688 33.2289ZM5.95622 48.5497L22.3035 39.7333L18.506 32.692L2.15871 41.5085L5.95622 48.5497ZM8.05746 144.709V45.0291H0.0574646V144.709H8.05746ZM28.7181 127.907L2.26861 141.132L5.84632 148.287L32.2958 135.062L28.7181 127.907ZM26.507 45.0291V131.485H34.507V45.0291H26.507ZM43.4269 51.019L33.141 42.0188L27.8729 48.0394L38.1589 57.0396L43.4269 51.019ZM47.548 60.458C47.548 58.6455 47.0385 56.8476 46.3827 55.3572C45.7238 53.8596 44.7792 52.3588 43.6213 51.2009L37.9644 56.8577C38.276 57.1693 38.7089 57.7807 39.0602 58.5791C39.4146 59.3846 39.548 60.0664 39.548 60.458H47.548ZM47.548 144.709V60.458H39.548V144.709H47.548ZM68.2087 127.907L41.7592 141.132L45.3369 148.287L71.7864 135.062L68.2087 127.907ZM65.9975 45.0291V131.485H73.9975V45.0291H65.9975ZM82.9175 51.019L72.6315 42.0188L67.3635 48.0394L77.6494 57.0396L82.9175 51.019ZM87.0386 60.2743C87.0386 58.5125 86.5063 56.7439 85.8611 55.3068C85.2065 53.8487 84.2662 52.3553 83.1119 51.2009L77.455 56.8577C77.7701 57.1728 78.2074 57.7916 78.563 58.5835C78.928 59.3965 79.0386 60.0157 79.0386 60.2743H87.0386ZM87.0386 127.627V60.2743H79.0386V127.627H87.0386ZM88.4028 130.075C88.2651 129.992 87.8752 129.647 87.503 128.974C87.1299 128.3 87.0386 127.774 87.0386 127.627H79.0386C79.0386 129.501 79.682 131.363 80.5028 132.847C81.3245 134.332 82.5878 135.915 84.2868 136.935L88.4028 130.075ZM105.595 141.164L88.5133 130.144L84.1763 136.866L101.258 147.887L105.595 141.164ZM119.771 120.876L100.485 141.816L106.369 147.235L125.655 126.296L119.771 120.876ZM108.137 122.774L121.405 127.366L124.021 119.806L110.754 115.214L108.137 122.774ZM105.335 114.649C105.18 115.108 104.706 116.39 104.685 117.674C104.672 118.435 104.8 119.429 105.361 120.424C105.938 121.445 106.784 122.136 107.657 122.572L111.235 115.417C111.529 115.564 111.99 115.893 112.328 116.492C112.652 117.064 112.688 117.577 112.684 117.808C112.68 118.01 112.646 118.078 112.69 117.914C112.732 117.755 112.797 117.558 112.918 117.197L105.335 114.649ZM105.672 113.484C105.672 113.446 105.677 113.51 105.619 113.737C105.56 113.973 105.474 114.233 105.335 114.649L112.918 117.197C113.134 116.554 113.672 115.073 113.672 113.484H105.672ZM124.631 82.3541L142.815 73.3539L139.267 66.1841L121.083 75.1843L124.631 82.3541ZM126.857 115.505V78.7692H118.857V115.505H126.857ZM128.441 119.105C128.129 118.793 127.696 118.182 127.345 117.384C126.99 116.578 126.857 115.896 126.857 115.505H118.857C118.857 117.317 119.366 119.115 120.022 120.605C120.681 122.103 121.626 123.604 122.784 124.762L128.441 119.105ZM152.09 142.02L128.396 119.061L122.829 124.806L146.523 147.766L152.09 142.02ZM186.39 111.943L146.899 141.698L151.714 148.088L191.204 118.332L186.39 111.943ZM184.797 78.4018V115.137H192.797V78.4018H184.797ZM183.213 74.8016C183.525 75.1131 183.958 75.7246 184.309 76.5229C184.664 77.3285 184.797 78.0103 184.797 78.4018H192.797C192.797 76.5893 192.288 74.7915 191.632 73.301C190.973 71.8034 190.028 70.3026 188.87 69.1447L183.213 74.8016ZM158.136 51.191L183.3 74.8853L188.784 69.061L163.62 45.3666L158.136 51.191ZM138.351 68.6548L163.147 51.5728L158.609 44.9848L133.813 62.0667L138.351 68.6548ZM143.698 66.7794L138.739 62.3711L133.424 68.3504L138.384 72.7587L143.698 66.7794ZM145.306 101.361C145.306 104.561 146.793 108.459 149.404 110.78L154.719 104.801C154.024 104.183 153.306 102.57 153.306 101.361H145.306ZM145.306 77.1161V101.361H153.306V77.1161H145.306ZM162.226 83.106L151.941 74.1058L146.672 80.1264L156.958 89.1266L162.226 83.106ZM166.531 92.545C166.531 90.7269 166.019 88.9129 165.316 87.3835C164.61 85.8497 163.575 84.305 162.25 83.1266L156.935 89.1059C157.262 89.397 157.697 89.9645 158.048 90.7267C158.4 91.4933 158.531 92.1589 158.531 92.545H166.531ZM166.531 118.076V92.545H158.531V118.076H166.531ZM149.258 110.644L159.728 120.929L165.335 115.223L154.865 104.937L149.258 110.644ZM358.891 106.907L401.688 83.9471L397.906 76.8975L355.109 99.8571L358.891 106.907ZM359.107 104.801C359.095 104.79 359.484 105.188 359.376 105.945C359.273 106.664 358.828 106.94 358.789 106.96L355.211 99.8042C353.336 100.742 351.789 102.488 351.456 104.814C351.119 107.178 352.151 109.321 353.792 110.78L359.107 104.801ZM380.008 125.325L359.252 104.937L353.646 110.644L374.402 131.032L380.008 125.325ZM355.995 147.981L379.505 131.45L374.904 124.906L351.393 141.437L355.995 147.981ZM327.228 124.817L350.922 147.593L356.466 141.826L332.772 119.05L327.228 124.817ZM323.245 115.505C323.245 117.247 323.767 119.045 324.398 120.51C325.036 121.988 325.975 123.566 327.171 124.762L332.828 119.105C332.555 118.831 332.117 118.205 331.744 117.341C331.366 116.464 331.245 115.783 331.245 115.505H323.245ZM323.245 78.7692V115.505H331.245V78.7692H323.245ZM343.654 66.1841L325.47 75.1843L329.019 82.3541L347.203 73.3539L343.654 66.1841ZM337.812 68.3504L342.771 72.7587L348.086 66.7794L343.127 62.3711L337.812 68.3504ZM362.98 44.8125L338.184 62.0781L342.755 68.6434L367.551 51.3778L362.98 44.8125ZM402.531 77.5022L367.999 45.175L362.532 51.0152L397.063 83.3424L402.531 77.5022ZM351.035 79.9202L367.749 94.7981L373.068 88.8224L356.354 73.9446L351.035 79.9202ZM357.694 100.81V76.9324H349.694V100.81H357.694ZM368.512 88.2884L351.798 97.2886L355.591 104.332L372.305 95.3321L368.512 88.2884ZM460.261 62.6439L438.403 78.0728L443.016 84.6085L464.874 69.1797L460.261 62.6439ZM438.076 51.9915L460.117 69.0735L465.018 62.7501L442.976 45.6682L438.076 51.9915ZM432.429 59.7645L442.899 52.0501L438.153 45.6096L427.684 53.3241L432.429 59.7645ZM417.214 52.0501L427.684 59.7645L432.429 53.3241L421.96 45.6096L417.214 52.0501ZM400.602 69.2137L422.092 51.9481L417.082 45.7116L395.591 62.9772L400.602 69.2137ZM405.665 65.9717L400.155 62.6655L396.039 69.5254L401.549 72.8316L405.665 65.9717ZM410.913 75.2793C410.913 73.3427 410.288 71.4755 409.431 69.959C408.576 68.4457 407.305 66.9555 405.665 65.9717L401.549 72.8317C401.746 72.9499 402.128 73.2965 402.467 73.8955C402.803 74.4913 402.913 75.0119 402.913 75.2793H410.913ZM410.913 128.546V75.2793H402.913V128.546H410.913ZM412.254 131.095C412.098 130.991 411.716 130.627 411.369 129.988C411.026 129.357 410.913 128.819 410.913 128.546H402.913C402.913 130.477 403.535 132.327 404.34 133.808C405.141 135.281 406.321 136.754 407.817 137.752L412.254 131.095ZM429.453 142.072L412.188 131.052L407.883 137.795L425.149 148.816L429.453 142.072ZM443.645 121.795L424.359 142.734L430.243 148.154L449.53 127.215L443.645 121.795ZM434.988 123.543L444.907 128.135L448.268 120.875L438.349 116.283L434.988 123.543ZM429.363 114.403C429.363 116.297 430.019 118.143 430.883 119.606C431.744 121.062 433.078 122.59 434.88 123.491L438.458 116.335C438.465 116.339 438.377 116.293 438.226 116.141C438.079 115.992 437.919 115.786 437.771 115.536C437.441 114.979 437.363 114.528 437.363 114.403H429.363ZM429.363 75.6467V114.403H437.363V75.6467H429.363ZM443.16 78.179L435.813 72.485L430.912 78.8083L438.259 84.5023L443.16 78.179ZM586.497 42.4421H560.888V50.4421H586.497V42.4421ZM592.374 43.3196C589.784 40.2719 589.784 40.2715 589.785 40.2711C589.785 40.271 589.785 40.2707 589.785 40.2705C589.786 40.2701 589.786 40.2697 589.787 40.2694C589.788 40.2688 589.788 40.2683 589.788 40.2681C589.789 40.2675 589.789 40.2677 589.788 40.2686C589.786 40.2703 589.78 40.2748 589.772 40.2818C589.755 40.2959 589.726 40.3202 589.685 40.3532C589.604 40.4195 589.479 40.5197 589.32 40.6424C588.998 40.891 588.558 41.2158 588.073 41.533C587.576 41.8581 587.104 42.1274 586.712 42.303C586.248 42.5104 586.215 42.4421 586.497 42.4421V50.4421C587.881 50.4421 589.134 49.9835 589.979 49.6055C590.895 49.1956 591.754 48.6843 592.451 48.2287C593.16 47.7653 593.776 47.3095 594.212 46.9726C594.432 46.8026 594.611 46.6589 594.739 46.5543C594.804 46.502 594.855 46.4592 594.893 46.4276C594.912 46.4117 594.928 46.3987 594.94 46.3886C594.946 46.3835 594.951 46.3792 594.955 46.3757C594.957 46.3739 594.959 46.3723 594.961 46.3709C594.962 46.3703 594.962 46.3696 594.963 46.369C594.963 46.3687 594.964 46.3683 594.964 46.3682C594.965 46.3678 594.965 46.3674 592.374 43.3196ZM569.329 22.7933L589.349 45.9366L595.4 40.7026L575.379 17.5593L569.329 22.7933ZM560.081 24.1763H572.354V16.1763L560.081 16.1763V24.1763ZM555.228 21.1304L557.36 23.1085L562.802 17.2441L560.67 15.266L555.228 21.1304ZM546.193 13.5466L555.376 21.261L560.522 15.1354L551.338 7.42096L546.193 13.5466ZM535.772 23.5456L550.921 13.8531L546.609 7.11443L531.461 16.807L535.772 23.5456ZM524.781 24.1763H533.617V16.1763L524.781 16.1763V24.1763ZM499.618 24.1763L524.781 24.1763V16.1763L499.618 16.1763V24.1763ZM485.474 24.1763H499.618V16.1763H485.474V24.1763ZM482.387 25.5709C482.501 25.4243 482.943 25.0302 483.748 24.6598C484.541 24.2952 485.202 24.1763 485.474 24.1763V16.1763C483.726 16.1763 481.908 16.7003 480.405 17.3919C478.914 18.0776 477.244 19.1529 476.072 20.6594L482.387 25.5709ZM474.578 34.8718L482.292 25.6879L476.167 20.5424L468.452 29.7262L474.578 34.8718ZM491.899 51.2839L474.633 29.7937L468.397 34.8043L485.662 56.2945L491.899 51.2839ZM488.937 47.0994L485.631 51.324L491.931 56.2544L495.237 52.0299L488.937 47.0994ZM497.046 42.4421C495.179 42.4421 493.478 43.286 492.339 44.016C491.089 44.8174 489.87 45.8991 488.929 47.1089L495.244 52.0204C495.589 51.5771 496.116 51.0975 496.656 50.751C496.918 50.5834 497.121 50.4863 497.245 50.4398C497.39 50.385 497.31 50.4421 497.046 50.4421V42.4421ZM499.434 42.4421H497.046V50.4421H499.434V42.4421ZM524.781 42.4421L499.434 42.4421V50.4421L524.781 50.4421V42.4421ZM534.622 42.4421H524.781V50.4421H534.622V42.4421ZM538.622 125.466V46.4421H530.622V125.466H538.622ZM539.803 127.913C539.668 127.833 539.343 127.547 539.041 126.967C538.745 126.4 538.622 125.836 538.622 125.466H530.622C530.622 127.299 531.142 129.123 531.948 130.668C532.748 132.201 533.984 133.752 535.687 134.773L539.803 127.913ZM556.995 139.003L539.913 127.982L535.576 134.704L552.658 145.725L556.995 139.003ZM571.171 118.715L551.884 139.654L557.769 145.074L577.055 124.135L571.171 118.715ZM562.671 120.451L572.406 125.042L575.819 117.807L566.084 113.215L562.671 120.451ZM556.888 111.322C556.888 113.381 557.638 115.277 558.592 116.742C559.546 118.207 560.919 119.576 562.589 120.411L566.167 113.255C566 113.172 565.628 112.887 565.296 112.377C564.965 111.868 564.888 111.468 564.888 111.322H556.888ZM556.888 46.4421V111.322H564.888V46.4421H556.888ZM635.328 62.6439L613.47 78.0728L618.084 84.6085L639.941 69.1797L635.328 62.6439ZM613.143 51.9915L635.184 69.0735L640.085 62.7501L618.043 45.6682L613.143 51.9915ZM607.496 59.7645L617.966 52.0501L613.22 45.6096L602.751 53.3241L607.496 59.7645ZM592.281 52.0501L602.751 59.7645L607.496 53.3241L597.027 45.6096L592.281 52.0501ZM575.669 69.2137L597.159 51.9481L592.149 45.7116L570.659 62.9772L575.669 69.2137ZM580.732 65.9717L575.222 62.6655L571.106 69.5255L576.616 72.8316L580.732 65.9717ZM585.98 75.2793C585.98 73.3427 585.355 71.4755 584.498 69.959C583.643 68.4457 582.372 66.9555 580.732 65.9717L576.616 72.8317C576.813 72.9499 577.195 73.2965 577.534 73.8955C577.871 74.4913 577.98 75.0119 577.98 75.2793H585.98ZM585.98 128.546V75.2793H577.98V128.546H585.98ZM587.322 131.095C587.165 130.991 586.783 130.627 586.436 129.988C586.093 129.357 585.98 128.818 585.98 128.546H577.98C577.98 130.477 578.602 132.327 579.407 133.808C580.208 135.281 581.388 136.754 582.884 137.752L587.322 131.095ZM604.521 142.072L587.255 131.052L582.951 137.795L600.216 148.816L604.521 142.072ZM618.712 121.795L599.426 142.734L605.311 148.154L624.597 127.215L618.712 121.795ZM610.056 123.543L619.974 128.135L623.335 120.875L613.416 116.283L610.056 123.543ZM604.43 114.403C604.43 116.297 605.086 118.143 605.95 119.606C606.811 121.062 608.145 122.59 609.947 123.491L613.525 116.335C613.532 116.339 613.444 116.293 613.293 116.141C613.147 115.992 612.986 115.786 612.838 115.536C612.509 114.979 612.43 114.528 612.43 114.403H604.43ZM604.43 75.6467V114.403H612.43V75.6467H604.43ZM618.227 78.179L610.88 72.485L605.979 78.8083L613.327 84.5023L618.227 78.179ZM683.219 115.014L672.749 104.912L667.194 110.669L677.664 120.771L683.219 115.014ZM676.441 65.7281V117.892H684.441V65.7281H676.441ZM705.245 50.1433L678.796 62.0823L682.087 69.3739L708.536 57.4349L705.245 50.1433ZM710.891 113.668V53.7891H702.891V113.668H710.891ZM712.036 115.537C711.509 115.297 710.891 114.376 710.891 113.668H702.891C702.891 117.368 705.212 121.222 708.725 122.82L712.036 115.537ZM721.822 120.152L712.087 115.56L708.674 122.796L718.409 127.388L721.822 120.152ZM703.772 147.419L723.058 126.48L717.173 121.06L697.887 141.999L703.772 147.419ZM681.219 136.871L698.668 148.075L702.991 141.343L685.541 130.139L681.219 136.871ZM669.495 147.997L685.659 136.792L681.101 130.218L664.938 141.422L669.495 147.997ZM640.923 124.806L664.433 147.582L670 141.836L646.489 119.06L640.923 124.806ZM636.951 115.505C636.951 117.154 637.379 118.916 638.01 120.449C638.636 121.97 639.624 123.657 641.048 124.923L646.363 118.944C646.135 118.741 645.745 118.223 645.407 117.403C645.074 116.593 644.951 115.875 644.951 115.505H636.951ZM636.951 82.4427V115.505H644.951V82.4427H636.951ZM635.167 79.842C635.514 80.0846 635.977 80.5739 636.376 81.2532C636.781 81.943 636.942 82.5257 636.967 82.8048L644.934 82.0806C644.776 80.3394 644.11 78.6261 643.275 77.2036C642.434 75.7706 641.245 74.3313 639.755 73.2882L635.167 79.842ZM631.835 77.7429L635.325 79.947L639.597 73.1831L636.107 70.979L631.835 77.7429ZM649.945 51.0815L631.027 71.6533L636.915 77.0686L655.834 56.4968L649.945 51.0815ZM666.819 60.0675L655.431 50.7L650.349 56.8783L661.737 66.2458L666.819 60.0675ZM671.217 69.4017C671.217 67.5861 670.706 65.7647 669.988 64.2351C669.276 62.7183 668.194 61.1349 666.733 59.9993L661.822 66.314C662.015 66.4641 662.402 66.9012 662.746 67.6344C663.084 68.3549 663.217 69.0132 663.217 69.4017H671.217ZM671.217 101.361V69.4017H663.217V101.361H671.217ZM672.8 104.962C672.527 104.688 672.088 104.062 671.716 103.198C671.337 102.321 671.217 101.64 671.217 101.361H663.217C663.217 103.104 663.738 104.902 664.37 106.367C665.008 107.845 665.947 109.423 667.143 110.619L672.8 104.962ZM738.932 101.361C738.932 103.011 739.359 104.773 739.991 106.305C740.617 107.827 741.605 109.513 743.029 110.78L748.344 104.8C748.116 104.597 747.726 104.08 747.388 103.259C747.055 102.45 746.932 101.732 746.932 101.361H738.932ZM738.932 76.9324V101.361H746.932V76.9324H738.932ZM758.977 85.68L745.569 73.9247L740.295 79.9402L753.703 91.6955L758.977 85.68ZM776.455 67.7302L753.863 85.5469L758.817 91.8286L781.409 74.0119L776.455 67.7302ZM751.776 51.0208L776.205 73.7968L781.66 67.9454L757.231 45.1694L751.776 51.0208ZM731.993 68.6434L756.789 51.3778L752.218 44.8125L727.421 62.0781L731.993 68.6434ZM737.324 66.7794L732.364 62.3711L727.049 68.3504L732.009 72.7586L737.324 66.7794ZM718.256 82.3541L736.44 73.3539L732.892 66.1841L714.708 75.1843L718.256 82.3541ZM720.482 115.505V78.7692H712.482V115.505H720.482ZM722.066 119.105C721.792 118.831 721.354 118.205 720.981 117.341C720.603 116.464 720.482 115.783 720.482 115.505H712.482C712.482 117.247 713.004 119.045 713.636 120.51C714.274 121.988 715.213 123.566 716.409 124.762L722.066 119.105ZM745.704 141.826L722.009 119.05L716.465 124.817L740.16 147.593L745.704 141.826ZM764.337 124.898L740.643 141.429L745.22 147.99L768.915 131.459L764.337 124.898ZM742.896 110.656L763.835 131.044L769.416 125.312L748.477 104.924L742.896 110.656ZM776.897 32.1152V144.709H784.897V32.1152H776.897ZM775.319 29.0276C775.572 29.2248 776.014 29.7229 776.393 30.4662C776.774 31.2135 776.897 31.8246 776.897 32.1152H784.897C784.897 30.2018 784.286 28.3332 783.519 26.8304C782.75 25.3237 781.63 23.8013 780.23 22.7128L775.319 29.0276ZM771.085 25.7141L775.309 29.0202L780.24 22.7202L776.015 19.414L771.085 25.7141ZM792.535 2.1801L771.045 19.4458L776.055 25.6823L797.546 8.41664L792.535 2.1801ZM806.797 9.94999L797.613 2.23555L792.467 8.36119L801.651 16.0756L806.797 9.94999ZM811.163 19.2578C811.163 17.5098 810.639 15.6917 809.947 14.1882C809.262 12.6975 808.186 11.0271 806.68 9.85542L801.768 16.1702C801.915 16.2842 802.309 16.7262 802.679 17.5314C803.044 18.3239 803.163 18.9854 803.163 19.2578H811.163ZM811.163 57.279V19.2578H803.163V57.279H811.163ZM815.993 45.7946L804.788 54.0601L809.538 60.4979L820.742 52.2324L815.993 45.7946ZM841.372 63.6211L820.984 45.9881L815.751 52.039L836.139 69.672L841.372 63.6211ZM827.345 79.9744L841.121 69.8721L836.39 63.4209L822.614 73.5231L827.345 79.9744ZM846.825 91.8379L827.723 73.8376L822.236 79.6599L841.339 97.6603L846.825 91.8379ZM850.837 101.178C850.837 99.3653 850.328 97.5675 849.672 96.077C849.013 94.5794 848.068 93.0785 846.91 91.9207L841.254 97.5775C841.565 97.8891 841.998 98.5005 842.349 99.2989C842.704 100.104 842.837 100.786 842.837 101.178H850.837ZM850.837 136.444V101.178H842.837V136.444H850.837ZM851.982 138.313C851.455 138.073 850.837 137.152 850.837 136.444H842.837C842.837 140.144 845.158 143.998 848.672 145.596L851.982 138.313ZM861.768 142.928L852.034 138.336L848.621 145.572L858.355 150.164L861.768 142.928ZM843.718 170.195L863.004 149.256L857.12 143.836L837.834 164.775L843.718 170.195ZM821.525 159.826L838.607 170.846L842.944 164.124L825.862 153.103L821.525 159.826ZM816.388 150.587C816.388 152.524 817.013 154.391 817.87 155.907C818.725 157.421 819.996 158.911 821.636 159.895L825.752 153.035C825.555 152.916 825.173 152.57 824.834 151.971C824.497 151.375 824.388 150.854 824.388 150.587H816.388ZM816.388 115.321V150.587H824.388V115.321H816.388ZM814.804 111.721C815.116 112.032 815.549 112.644 815.9 113.442C816.254 114.248 816.388 114.929 816.388 115.321H824.388C824.388 113.508 823.878 111.711 823.222 110.22C822.564 108.723 821.619 107.222 820.461 106.064L814.804 111.721ZM804.555 102.925L815.025 111.926L820.24 105.859L809.77 96.8588L804.555 102.925ZM811.163 131.485V99.8921H803.163V131.485H811.163ZM782.696 148.282L808.962 135.057L805.364 127.912L779.098 141.137L782.696 148.282ZM861.676 127.811V82.0754H853.676V127.811H861.676ZM863.04 130.259C862.903 130.176 862.513 129.831 862.141 129.158C861.767 128.483 861.676 127.957 861.676 127.811H853.676C853.676 129.685 854.319 131.547 855.14 133.03C855.962 134.516 857.225 136.099 858.924 137.119L863.04 130.259ZM880.233 141.348L863.151 130.327L858.814 137.05L875.896 148.07L880.233 141.348ZM894.408 121.06L875.122 141.999L881.006 147.419L900.293 126.48L894.408 121.06ZM885.854 122.586L895.589 127.361L899.112 120.179L889.377 115.403L885.854 122.586ZM880.126 113.668C880.126 115.565 880.783 117.44 881.725 118.94C882.663 120.434 884.163 121.995 886.249 122.754L888.983 115.235C889.032 115.253 888.99 115.249 888.879 115.15C888.769 115.052 888.633 114.897 888.5 114.686C888.368 114.476 888.267 114.252 888.201 114.046C888.134 113.834 888.126 113.702 888.126 113.668H880.126ZM880.126 72.1568V113.668H888.126V72.1568H880.126ZM890.758 62.3209L881.757 68.9333L886.494 75.3803L895.494 68.768L890.758 62.3209ZM868.531 52.4194L890.756 68.7667L895.496 62.3222L873.271 45.975L868.531 52.4194ZM851.798 68.3869L873.288 52.407L868.514 45.9873L847.024 61.9673L851.798 68.3869ZM866.885 73.3744L851.823 61.9865L846.998 68.3677L862.06 79.7557L866.885 73.3744ZM860.195 85.1824L866.991 79.6721L861.953 73.458L855.157 78.9684L860.195 85.1824ZM970.797 68.8667L945.633 45.356L940.171 51.2016L965.335 74.7123L970.797 68.8667ZM975.005 78.2182C975.005 76.4687 974.48 74.6564 973.802 73.1527C973.119 71.639 972.091 70.0152 970.724 68.7998L965.409 74.7791C965.694 75.0332 966.136 75.6135 966.509 76.4416C966.887 77.2798 967.005 77.9471 967.005 78.2182H975.005ZM975.005 113.668V78.2182H967.005V113.668H975.005ZM976.1 115.417C975.989 115.361 975.671 115.125 975.37 114.639C975.068 114.151 975.005 113.77 975.005 113.668H967.005C967.005 115.586 967.676 117.409 968.568 118.85C969.461 120.293 970.797 121.709 972.522 122.572L976.1 115.417ZM985.965 120.166L976.046 115.39L972.576 122.598L982.494 127.374L985.965 120.166ZM967.886 147.419L987.172 126.48L981.287 121.06L962.001 141.999L967.886 147.419ZM945.526 137.06L962.791 148.081L967.096 141.338L949.83 130.317L945.526 137.06ZM940.555 127.811C940.555 129.678 941.195 131.525 941.965 132.973C942.733 134.417 943.907 135.982 945.459 137.017L949.897 130.36C949.796 130.293 949.408 129.93 949.028 129.216C948.65 128.506 948.555 127.964 948.555 127.811H940.555ZM940.555 92.545V127.811H948.555V92.545H940.555ZM938.959 89.1059C939.287 89.397 939.721 89.9645 940.072 90.7267C940.425 91.4933 940.555 92.1589 940.555 92.545H948.555C948.555 90.7269 948.043 88.9129 947.34 87.3835C946.634 85.8497 945.6 84.305 944.274 83.1266L938.959 89.1059ZM928.853 80.1027L938.956 89.1029L944.277 83.1296L934.175 74.1294L928.853 80.1027ZM935.514 131.668V77.1161H927.514V131.668H935.514ZM906.834 148.297L933.283 135.256L929.745 128.081L903.296 141.122L906.834 148.297ZM901.065 77.8508V144.709H909.065V77.8508H901.065ZM899.67 74.7632C899.817 74.8772 900.211 75.3192 900.581 76.1244C900.946 76.9169 901.065 77.5784 901.065 77.8508H909.065C909.065 76.1028 908.541 74.2846 907.849 72.7812C907.164 71.2904 906.088 69.6201 904.582 68.4484L899.67 74.7632ZM892.667 68.5296L899.464 74.591L904.788 68.6206L897.992 62.5593L892.667 68.5296ZM917.841 44.9962L893.044 62.2618L897.616 68.8271L922.412 51.5614L917.841 44.9962ZM932.577 54.3419L922.842 45.3417L917.411 51.2159L927.146 60.2161L932.577 54.3419ZM940.63 44.9867L927.589 53.9869L932.133 60.5711L945.174 51.5709L940.63 44.9867ZM1021.19 51.0073L1046.36 74.7016L1051.84 68.8773L1026.68 45.183L1021.19 51.0073ZM1001.42 68.6434L1026.22 51.3778L1021.65 44.8125L996.852 62.0781L1001.42 68.6434ZM1006.69 66.5404L1001.73 62.3158L996.544 68.4058L1001.5 72.6303L1006.69 66.5404ZM987.716 82.3397L1005.9 73.1558L1002.29 66.0149L984.11 75.1987L987.716 82.3397ZM989.913 115.321V78.7692H981.913V115.321H989.913ZM991.496 119.105C991.227 118.835 990.792 118.215 990.423 117.344C990.055 116.473 989.913 115.729 989.913 115.321H981.913C981.913 117.117 982.414 118.944 983.056 120.461C983.697 121.978 984.64 123.562 985.84 124.762L991.496 119.105ZM1015.13 141.826L991.44 119.05L985.896 124.817L1009.59 147.593L1015.13 141.826ZM1023.27 132.078L1010.05 141.445L1014.67 147.973L1027.9 138.606L1023.27 132.078ZM1029.59 140.696V135.342H1021.59V140.696H1029.59ZM1021.97 138.989L1019.31 144.627L1026.55 148.04L1029.2 142.402L1021.97 138.989ZM1019.35 144.545C1019.27 144.712 1018.98 145.083 1018.47 145.415C1017.96 145.747 1017.56 145.824 1017.42 145.824V153.824C1019.48 153.824 1021.37 153.074 1022.84 152.119C1024.3 151.166 1025.67 149.792 1026.51 148.123L1019.35 144.545ZM1017.42 145.824H969.845V153.824H1017.42V145.824ZM969.845 145.824H944.681V153.824H969.845V145.824ZM944.681 145.824L930.538 145.824V153.824L944.681 153.824V145.824ZM930.538 145.824C928.79 145.824 926.972 146.348 925.468 147.039C923.978 147.725 922.307 148.8 921.136 150.307L927.45 155.218C927.564 155.072 928.006 154.677 928.812 154.307C929.604 153.942 930.266 153.824 930.538 153.824V145.824ZM921.23 150.19L913.516 159.373L919.641 164.519L927.356 155.335L921.23 150.19ZM913.46 164.452L930.726 185.942L936.962 180.931L919.697 159.441L913.46 164.452ZM936.994 185.902L940.3 181.677L934 176.747L930.694 180.971L936.994 185.902ZM940.308 181.668C940.653 181.224 941.179 180.745 941.72 180.398C941.981 180.231 942.185 180.134 942.308 180.087C942.454 180.032 942.373 180.089 942.11 180.089V172.089C940.243 172.089 938.541 172.933 937.402 173.663C936.152 174.465 934.934 175.546 933.993 176.756L940.308 181.668ZM942.11 180.089H944.497V172.089H942.11V180.089ZM944.497 180.089H969.845V172.089H944.497V180.089ZM969.845 180.089H1031.56V172.089H969.845V180.089ZM1031.56 180.089C1033.7 180.089 1035.84 179.384 1037.58 178.297L1033.32 171.521C1032.71 171.909 1032.01 172.089 1031.56 172.089V180.089ZM1040.7 173.823L1037.83 171.696L1033.07 178.122L1035.94 180.249L1040.7 173.823ZM1057.81 157.827L1035.96 173.807L1040.68 180.265L1062.54 164.285L1057.81 157.827ZM1035.58 147.931L1057.81 164.278L1062.55 157.834L1040.32 141.487L1035.58 147.931ZM1039.42 148.594L1040.32 147.928L1035.58 141.489L1034.67 142.155L1039.42 148.594ZM1039.76 142.432L1035.24 138.271L1029.82 144.156L1034.34 148.317L1039.76 142.432ZM1050.05 127.912L1030.73 137.641L1034.33 144.786L1053.65 135.057L1050.05 127.912ZM1047.85 78.2182V131.485H1055.85V78.2182H1047.85ZM1046.27 74.6178C1046.54 74.8913 1046.98 75.518 1047.35 76.3815C1047.73 77.2589 1047.85 77.9401 1047.85 78.2182H1055.85C1055.85 76.4758 1055.33 74.6774 1054.7 73.2128C1054.06 71.7344 1053.12 70.157 1051.93 68.9611L1046.27 74.6178ZM1008.36 76.9324V101.178H1016.36V76.9324H1008.36ZM1025.31 83.1325L1015.03 73.9487L1009.7 79.9162L1019.98 89.1L1025.31 83.1325ZM1029.59 92.3613C1029.59 90.6133 1029.06 88.7951 1028.37 87.2916C1027.69 85.8009 1026.61 84.1306 1025.1 82.9589L1020.19 89.2737C1020.34 89.3877 1020.73 89.8297 1021.1 90.6349C1021.47 91.4274 1021.59 92.0889 1021.59 92.3613H1029.59ZM1029.59 117.892V92.3613H1021.59V117.892H1029.59ZM1012.34 110.669L1022.81 120.771L1028.36 115.014L1017.89 104.912L1012.34 110.669ZM1008.36 101.178C1008.36 102.883 1008.77 104.678 1009.41 106.257C1010.04 107.817 1011.03 109.51 1012.46 110.78L1017.77 104.8C1017.55 104.601 1017.16 104.09 1016.83 103.262C1016.5 102.453 1016.36 101.677 1016.36 101.178H1008.36ZM132.668 10.9144L121.062 20.3655L126.114 26.5689L137.72 17.1177L132.668 10.9144ZM150.652 20.2216L137.532 10.7705L132.856 17.2616L145.976 26.7128L150.652 20.2216ZM137.615 36.6275L150.735 26.6512L145.893 20.2831L132.773 30.2594L137.615 36.6275ZM120.981 26.5006L132.587 36.4768L137.802 30.41L126.196 20.4338L120.981 26.5006ZM650.653 26.5689L662.259 17.1177L657.208 10.9144L645.602 20.3655L650.653 26.5689ZM662.341 30.41L650.735 20.4338L645.52 26.5006L657.126 36.4768L662.341 30.41ZM670.432 20.2831L657.312 30.2594L662.155 36.6275L675.274 26.6512L670.432 20.2831ZM657.395 17.2616L670.515 26.7128L675.191 20.2216L662.072 10.7705L657.395 17.2616ZM164.459 10.9144L152.853 20.3655L157.904 26.5689L169.51 17.1177L164.459 10.9144ZM182.442 20.2216L169.323 10.7705L164.646 17.2616L177.766 26.7128L182.442 20.2216ZM169.406 36.6275L182.525 26.6512L177.683 20.2831L164.563 30.2594L169.406 36.6275ZM152.771 26.5006L164.377 36.4768L169.592 30.41L157.986 20.4338L152.771 26.5006ZM682.444 26.5689L694.05 17.1177L688.998 10.9144L677.392 20.3655L682.444 26.5689ZM694.131 30.41L682.525 20.4338L677.31 26.5006L688.916 36.4768L694.131 30.41ZM702.222 20.2831L689.103 30.2594L693.945 36.6275L707.065 26.6512L702.222 20.2831ZM689.186 17.2616L702.306 26.7128L706.982 20.2216L693.862 10.7705L689.186 17.2616Z" fill="url(#paint0_linear_1_1957)" fill-opacity="0.6" mask="url(#path-1-outside-1_1_1957)"/>
<path d="M227.969 181.412V206.524H223.64V181.412H227.969ZM238.214 192.398V195.83H226.865V192.398H238.214ZM239.645 181.412V184.861H226.865V181.412H239.645Z" fill="white"/>
<path d="M276.839 203.091V206.524H264.231V203.091H276.839ZM265.439 181.412V206.524H261.109V181.412H265.439Z" fill="white"/>
<path d="M314.636 203.091V206.524H301.304V203.091H314.636ZM302.529 181.412V206.524H298.199V181.412H302.529ZM312.894 191.898V195.278H301.304V191.898H312.894ZM314.55 181.412V184.861H301.304V181.412H314.55Z" fill="white"/>
<path d="M352.623 203.091V206.524H339.291V203.091H352.623ZM340.515 181.412V206.524H336.186V181.412H340.515ZM350.881 191.898V195.278H339.291V191.898H350.881ZM352.537 181.412V184.861H339.291V181.412H352.537Z" fill="white"/>
<path d="M384.849 181.412V206.524H380.555V181.412H384.849ZM392.731 181.412V184.861H372.742V181.412H392.731Z" fill="white"/>
<path d="M441.799 181.412H445.663L452.924 200.78L460.168 181.412H464.031L454.442 206.524H451.372L441.799 181.412ZM440.04 181.412H443.714L444.352 198.176V206.524H440.04V181.412ZM462.117 181.412H465.808V206.524H461.478V198.176L462.117 181.412Z" fill="white"/>
<path d="M499.051 184.758L491.549 206.524H487.013L496.464 181.412H499.362L499.051 184.758ZM505.329 206.524L497.81 184.758L497.482 181.412H500.397L509.883 206.524H505.329ZM504.967 197.21V200.642H491.307V197.21H504.967Z" fill="white"/>
<path d="M550.629 181.412V206.524H546.3L535.038 188.535V206.524H530.709V181.412H535.038L546.335 199.435V181.412H550.629Z" fill="white"/>
<path d="M583.89 184.758L576.388 206.524H571.852L581.303 181.412H584.201L583.89 184.758ZM590.168 206.524L582.648 184.758L582.321 181.412H585.236L594.722 206.524H590.168ZM589.806 197.21V200.642H576.146V197.21H589.806Z" fill="white"/>
<path d="M634.554 193.692V203.281C634.197 203.753 633.64 204.27 632.881 204.833C632.134 205.385 631.139 205.863 629.897 206.265C628.655 206.667 627.109 206.869 625.258 206.869C623.682 206.869 622.239 206.604 620.929 206.075C619.618 205.535 618.485 204.747 617.531 203.712C616.588 202.678 615.858 201.419 615.34 199.935C614.823 198.44 614.564 196.739 614.564 194.83V193.088C614.564 191.191 614.8 189.501 615.271 188.017C615.754 186.523 616.444 185.258 617.341 184.223C618.238 183.188 619.319 182.406 620.584 181.877C621.86 181.337 623.303 181.067 624.913 181.067C626.971 181.067 628.673 181.412 630.018 182.102C631.375 182.78 632.421 183.723 633.157 184.93C633.893 186.137 634.358 187.517 634.554 189.069H630.311C630.173 188.196 629.903 187.414 629.5 186.724C629.11 186.034 628.546 185.493 627.81 185.103C627.086 184.7 626.143 184.499 624.982 184.499C623.981 184.499 623.102 184.689 622.343 185.068C621.584 185.447 620.952 186.005 620.446 186.741C619.951 187.477 619.577 188.374 619.325 189.432C619.072 190.489 618.945 191.697 618.945 193.054V194.83C618.945 196.21 619.089 197.434 619.376 198.504C619.675 199.573 620.101 200.476 620.653 201.212C621.216 201.947 621.9 202.505 622.705 202.885C623.51 203.252 624.418 203.436 625.43 203.436C626.419 203.436 627.23 203.356 627.862 203.195C628.494 203.023 628.995 202.821 629.362 202.591C629.742 202.35 630.035 202.12 630.242 201.901V196.917H625.016V193.692H634.554Z" fill="white"/>
<path d="M673.8 203.091V206.524H660.468V203.091H673.8ZM661.692 181.412V206.524H657.363V181.412H661.692ZM672.058 191.898V195.278H660.468V191.898H672.058ZM673.714 181.412V184.861H660.468V181.412H673.714Z" fill="white"/>
<path d="M697.109 181.412H700.973L708.234 200.78L715.478 181.412H719.341L709.752 206.524H706.682L697.109 181.412ZM695.35 181.412H699.024L699.662 198.176V206.524H695.35V181.412ZM717.427 181.412H721.118V206.524H716.788V198.176L717.427 181.412Z" fill="white"/>
<path d="M760.708 203.091V206.524H747.376V203.091H760.708ZM748.601 181.412V206.524H744.272V181.412H748.601ZM758.966 191.898V195.278H747.376V191.898H758.966ZM760.622 181.412V184.861H747.376V181.412H760.622Z" fill="white"/>
<path d="M802.179 181.412V206.524H797.85L786.588 188.535V206.524H782.259V181.412H786.588L797.885 199.435V181.412H802.179Z" fill="white"/>
<path d="M835.164 181.412V206.524H830.87V181.412H835.164ZM843.046 181.412V184.861H823.057V181.412H843.046Z" fill="white"/>
<g filter="url(#filter0_i_1_1957)">
<path fill-rule="evenodd" clip-rule="evenodd" d="M244.188 26.8169V35.6334H225.001V21.4902C225.001 19.4698 223.715 16.5309 222.062 15.2452L212.878 7.53076L191.388 24.7964L195.613 28.1026C197.266 29.3883 198.735 31.5925 198.735 33.0619V35.4497L186.796 47.5724L198.735 60.7971V122.513C198.735 124.717 200.021 127.288 201.858 128.39L218.94 139.411L238.226 118.472L228.491 113.88C226.654 112.961 225.001 110.574 225.001 108.369V60.7971L244.188 39.5985V139.411L270.454 126.186V71.6341L280.74 80.6342C282.393 82.1037 283.679 84.8588 283.679 87.0629V122.329C283.679 124.533 285.148 127.105 286.985 128.207L304.067 139.227L323.353 118.288L313.618 113.696C311.598 112.778 310.128 110.39 310.128 108.186V72.9198C310.128 70.7157 308.842 67.9605 307.373 66.4911L282.026 42.6131L270.454 50.6949V13.9595C270.454 11.939 269.168 9.00018 267.515 7.71445L258.331 0L236.841 17.2657L241.066 20.5718C242.719 21.8576 244.188 24.6127 244.188 26.8169ZM109.672 108.186V41.0165C109.672 38.8124 108.386 36.0572 106.733 34.5878L79.5487 9.0567L56.9565 24.8529L40.0582 9.0567L15.2618 26.3223L20.4047 30.9143L4.05746 39.7308V139.411L30.507 126.186V39.7308L40.7929 48.7309C42.2623 50.2004 43.548 52.9555 43.548 55.1596V139.411L69.9975 126.186V39.7308L80.2834 48.7309C81.7529 50.2004 83.0386 52.9555 83.0386 54.976V122.329C83.0386 124.349 84.508 127.105 86.3448 128.207L103.427 139.227L122.713 118.288L109.446 113.696C108.289 113.118 108.679 111.956 109.126 110.625C109.389 109.842 109.672 109.002 109.672 108.186ZM141.041 64.4706L122.857 73.4708V110.206C122.857 112.41 124.143 115.166 125.612 116.635L149.306 139.595L188.797 109.839V73.1035C188.797 70.8994 187.511 68.1442 186.042 66.6748L160.878 42.9804L136.082 60.0624L141.041 64.4706ZM152.062 102.492C150.409 101.022 149.306 98.2672 149.306 96.0631V71.8177L159.592 80.8179C161.245 82.2873 162.531 85.0425 162.531 87.2466V112.778L152.062 102.492ZM399.797 75.1239L357 98.0835C355.164 99.0019 354.796 101.022 356.449 102.492L377.205 122.88L353.694 139.411L330 116.635C328.53 115.166 327.245 112.227 327.245 110.206V73.4708L345.429 64.4706L340.469 60.0624L365.266 42.7968L399.797 75.1239ZM370.409 86.5119L353.694 71.6341V95.5121L370.409 86.5119ZM440.71 76.0423L462.567 60.6134L440.526 43.5315L430.056 51.2459L419.587 43.5315L398.097 60.7971L403.607 64.1033C405.444 65.2054 406.913 67.7768 406.913 69.981V123.247C406.913 125.451 408.383 128.023 410.036 129.125L427.301 140.146L446.587 119.206L436.669 114.614C434.832 113.696 433.363 111.125 433.363 109.104V70.3483L440.71 76.0423ZM560.888 41.1437H586.497C588.701 41.1437 592.374 38.0212 592.374 38.0212L572.354 14.8779L560.081 14.8779L557.949 12.8998L548.765 5.18541L533.617 14.8779L524.781 14.8779L499.618 14.8779H485.474C483.454 14.8779 480.515 16.1637 479.229 17.8168L471.515 27.0006L488.781 48.4908L492.087 44.2663C493.373 42.6132 495.577 41.1437 497.046 41.1437H499.434L524.781 41.1437H534.622V120.167C534.622 122.371 535.908 124.943 537.745 126.045L554.827 137.066L574.113 116.126L564.378 111.534C562.541 110.616 560.888 108.228 560.888 106.024V41.1437ZM615.777 76.0423L637.634 60.6134L615.593 43.5315L605.124 51.2459L594.654 43.5315L573.164 60.7971L578.674 64.1033C580.511 65.2054 581.98 67.7768 581.98 69.981V123.247C581.98 125.451 583.45 128.023 585.103 129.125L602.368 140.146L621.655 119.206L611.736 114.614C609.899 113.696 608.43 111.125 608.43 109.104V70.3483L615.777 76.0423ZM669.972 102.492L680.441 112.594V60.4298L706.891 48.4907V108.369C706.891 110.574 708.36 112.961 710.381 113.88L720.115 118.472L700.829 139.411L683.38 128.207L667.217 139.411L643.706 116.635C642.053 115.166 640.951 112.227 640.951 110.206V77.1444C640.767 75.1239 639.298 72.5524 637.461 71.2667L633.971 69.0626L652.89 48.4907L664.278 57.8583C665.931 59.144 667.217 61.8992 667.217 64.1033V96.0631C667.217 98.0836 668.502 101.022 669.972 102.492ZM745.687 102.492C744.034 101.022 742.932 98.0836 742.932 96.0631V71.6341L756.34 83.3894L778.932 65.5727L754.503 42.7968L729.707 60.0624L734.666 64.4706L716.482 73.4708V110.206C716.482 112.227 717.768 115.166 719.237 116.635L742.932 139.411L766.626 122.88L745.687 102.492ZM780.897 139.411V26.8169C780.897 24.6127 779.428 21.8576 777.775 20.5718L773.55 17.2657L795.04 0L804.224 7.71445C805.877 9.00018 807.163 11.939 807.163 13.9595V51.9806L818.367 43.7151L838.755 61.3481L824.98 71.4504L844.082 89.4507C845.551 90.9201 846.837 93.6753 846.837 95.8794V131.145C846.837 133.35 848.307 135.737 850.327 136.656L860.062 141.248L840.776 162.187L823.694 151.166C821.857 150.064 820.388 147.493 820.388 145.289V110.023C820.388 107.818 819.102 105.063 817.633 103.594L807.163 94.5937V126.186L780.897 139.411ZM857.676 76.777V122.513C857.676 124.533 859.146 127.288 860.982 128.39L878.064 139.411L897.35 118.472L887.616 113.696C885.595 112.961 884.126 110.39 884.126 108.369V66.8585L893.126 60.2461L870.901 43.8988L849.411 59.8787L864.472 71.2667L857.676 76.777ZM942.902 42.9804L968.066 66.4911C969.719 67.9605 971.005 70.8993 971.005 72.9198V108.369C971.005 110.39 972.474 112.778 974.311 113.696L984.23 118.472L964.944 139.411L947.678 128.39C946.025 127.288 944.555 124.533 944.555 122.513V87.2466C944.555 85.0425 943.27 82.2873 941.617 80.8179L931.514 71.8177V126.37L905.065 139.411V72.5524C905.065 70.532 903.779 67.5932 902.126 66.3074L895.33 60.2461L920.126 42.9804L929.861 51.9806L942.902 42.9804ZM1049.1 66.4911L1023.93 42.7968L999.138 60.0624L1004.1 64.287L985.913 73.4708V110.023C985.913 112.227 987.199 115.166 988.668 116.635L1012.36 139.411L1025.59 130.043V135.397L1022.93 141.035C1022.01 142.872 1019.62 144.525 1017.42 144.525H969.845H944.681L930.538 144.525C928.518 144.525 925.579 145.811 924.293 147.464L916.579 156.648L933.844 178.138L937.15 173.913C938.436 172.26 940.64 170.791 942.11 170.791H944.497H969.845H1031.56C1032.85 170.791 1034.27 170.348 1035.45 169.611L1038.32 171.738L1060.18 155.758L1037.95 139.41L1037.05 140.076L1032.53 135.915L1051.85 126.186V72.9198C1051.85 70.8993 1050.57 67.9605 1049.1 66.4911ZM1012.36 95.8794V71.6341L1022.65 80.8179C1024.3 82.1036 1025.59 85.0425 1025.59 87.0629V112.594L1015.12 102.492C1013.46 101.022 1012.36 98.0835 1012.36 95.8794ZM123.588 18.1688L135.194 8.71766L148.314 18.1688L135.194 28.145L123.588 18.1688ZM659.733 8.71766L648.128 18.1688L659.733 28.145L672.853 18.1688L659.733 8.71766ZM155.379 18.1688L166.985 8.71766L180.104 18.1688L166.985 28.145L155.379 18.1688ZM691.524 8.71766L679.918 18.1688L691.524 28.145L704.644 18.1688L691.524 8.71766Z" fill="url(#paint1_linear_1_1957)"/>
</g>
<defs>
<filter id="filter0_i_1_1957" x="4.05746" y="0" width="1056.12" height="180.138" filterUnits="userSpaceOnUse" color-interpolation-filters="sRGB">
<feFlood flood-opacity="0" result="BackgroundImageFix"/>
<feBlend mode="normal" in="SourceGraphic" in2="BackgroundImageFix" result="shape"/>
<feColorMatrix in="SourceAlpha" type="matrix" values="0 0 0 0 0 0 0 0 0 0 0 0 0 0 0 0 0 0 127 0" result="hardAlpha"/>
<feOffset dy="2"/>
<feGaussianBlur stdDeviation="1"/>
<feComposite in2="hardAlpha" operator="arithmetic" k2="-1" k3="1"/>
<feColorMatrix type="matrix" values="0 0 0 0 1 0 0 0 0 1 0 0 0 0 1 0 0 0 0.25 0"/>
<feBlend mode="normal" in2="shape" result="effect1_innerShadow_1_1957"/>
</filter>
<linearGradient id="paint0_linear_1_1957" x1="534.137" y1="5.29837" x2="534.137" y2="183.436" gradientUnits="userSpaceOnUse">
<stop stop-color="#FF8A00" stop-opacity="0"/>
<stop offset="1" stop-color="#FF8A00"/>
</linearGradient>
<linearGradient id="paint1_linear_1_1957" x1="533.895" y1="0" x2="533.895" y2="177.938" gradientUnits="userSpaceOnUse">
<stop stop-color="white"/>
<stop offset="1" stop-color="#7C7C7C"/>
</linearGradient>
</defs>
</svg>
