<svg width="1350" height="396" viewBox="0 0 1350 396" fill="none" xmlns="http://www.w3.org/2000/svg">
<path fill-rule="evenodd" clip-rule="evenodd" d="M353.851 122.34V112.359C353.851 109.864 352.188 106.745 350.316 105.289L345.534 101.546L369.863 82L380.26 90.7335C382.131 92.1891 383.587 95.5161 383.587 97.8035V139.391L396.687 130.242L425.383 157.274C427.046 158.938 428.502 162.057 428.502 164.552V204.477C428.502 206.972 430.165 209.675 432.453 210.715L443.473 215.913L421.64 239.619L402.301 227.142C400.222 225.895 398.558 222.983 398.558 220.488V180.564C398.558 178.068 397.103 174.949 395.231 173.286L383.587 163.097V224.855L353.851 239.827V126.829L332.13 150.828V204.685C332.13 207.18 334.001 209.883 336.08 210.923L347.101 216.121L325.268 239.827L305.929 227.35C303.85 226.103 302.394 223.191 302.394 220.696V150.828L288.878 135.857L302.394 122.132V119.429C302.394 117.766 300.731 115.27 298.859 113.815L294.076 110.072L318.405 90.5255L328.802 99.259C330.674 100.715 332.13 104.042 332.13 106.329V122.34H353.851ZM201.566 128.435V204.477C201.566 205.4 201.246 206.352 200.948 207.238C200.442 208.745 200 210.06 201.31 210.715L216.329 215.913L194.496 239.619L175.157 227.142C173.078 225.895 171.414 222.776 171.414 220.488V144.238C171.414 141.951 169.959 138.832 168.295 137.168L156.651 126.979V224.855L126.707 239.827V144.446C126.707 141.951 125.252 138.832 123.588 137.168L111.943 126.979V224.855L82 239.827V126.979L100.507 116.998L94.6844 111.799L122.756 92.2531L141.887 110.136L167.463 92.2531L198.239 121.157C200.11 122.82 201.566 125.939 201.566 128.435ZM216.493 165.176L237.079 154.987L231.464 149.996L259.536 130.658L288.024 157.482C289.688 159.146 291.143 162.265 291.143 164.76V206.348L246.436 240.035L219.612 214.042C217.948 212.378 216.493 209.259 216.493 206.764V165.176ZM246.436 190.753C246.436 193.248 247.684 196.367 249.555 198.031L261.408 209.675V180.772C261.408 178.276 259.952 175.157 258.081 173.494L246.436 163.305V190.753ZM481.565 193.04L530.015 167.048L490.923 130.45L462.851 149.996L468.465 154.987L447.879 165.176V206.764C447.879 209.051 449.335 212.378 450.998 214.042L477.822 239.827L504.439 221.112L480.942 198.031C479.07 196.367 479.486 194.08 481.565 193.04ZM477.822 163.097L496.745 179.94L477.822 190.129V163.097ZM601.077 150.62L576.333 168.087L568.015 161.641V205.516C568.015 207.804 569.678 210.715 571.758 211.755L582.987 216.953L561.153 240.658L541.607 228.182C539.735 226.934 538.072 224.023 538.072 221.528V161.225C538.072 158.73 536.408 155.819 534.329 154.571L528.09 150.828L552.419 131.282L564.272 140.015L576.125 131.282L601.077 150.62ZM717.176 99.691H712.386L709.059 96.6039L698.662 87.8704L680.187 99.691L638.663 99.483L629.202 128.179H682.651V218.041C682.651 220.536 684.106 223.447 686.186 224.695L705.524 237.171L727.358 213.466L716.337 208.268C714.257 207.228 712.386 204.525 712.386 202.03V128.179L723.534 115.862H717.176V99.691ZM799.27 150.62L774.525 168.087L766.208 161.641V205.516C766.208 207.804 767.871 210.715 769.951 211.755L781.18 216.953L759.346 240.658L739.799 228.182C737.928 226.934 736.265 224.023 736.265 221.528V161.225C736.265 158.73 734.601 155.819 732.522 154.571L726.283 150.828L750.612 131.282L762.465 140.015L774.318 131.282L799.27 150.62ZM847.732 150.412V209.467L835.879 198.031C834.216 196.367 832.76 193.04 832.76 190.753V154.571C832.76 152.076 831.305 148.957 829.433 147.501L816.541 136.896L795.123 160.186L799.074 162.681C801.153 164.136 802.817 167.048 803.025 169.335V206.764C803.025 209.051 804.272 212.378 806.144 214.042L832.76 239.827L851.059 227.142L870.813 239.827L892.647 216.121L881.626 210.923C879.339 209.883 877.675 207.18 877.675 204.685V136.896L847.732 150.412ZM918.477 190.753C918.477 193.04 919.725 196.367 921.596 198.031L945.301 221.112L918.477 239.827L891.653 214.042C889.989 212.378 888.534 209.051 888.534 206.764V165.176L909.12 154.987L903.505 149.996L931.577 130.45L959.233 156.235L933.657 176.405L918.477 163.097V190.753ZM961.458 112.359V239.827L991.193 224.855V189.089L1003.05 199.278C1004.71 200.942 1006.16 204.061 1006.16 206.556V246.481C1006.16 248.976 1007.83 251.887 1009.91 253.135L1029.25 265.611L1051.08 241.906L1040.06 236.708C1037.77 235.668 1036.11 232.965 1036.11 230.469V190.545C1036.11 188.049 1034.65 184.93 1032.99 183.267L1011.36 162.889L1026.96 151.452L1003.88 131.49L991.193 140.847V97.8035C991.193 95.5161 989.737 92.1891 987.866 90.7335L977.469 82L953.14 101.546L957.923 105.289C959.794 106.745 961.458 109.864 961.458 112.359ZM1048.38 220.696V168.919L1056.07 162.681L1039.02 149.789L1063.35 131.698L1088.51 150.204L1078.32 157.69V204.685C1078.32 206.972 1079.99 209.883 1082.27 210.715L1093.29 216.121L1071.46 239.827L1052.12 227.35C1050.04 226.103 1048.38 222.983 1048.38 220.696ZM1173.35 157.274L1144.86 130.658L1130.1 140.847L1119.08 130.658L1091.01 150.204L1098.7 157.066C1100.57 158.522 1102.03 161.849 1102.03 164.136V239.827L1131.97 225.063V163.305L1143.41 173.494C1145.28 175.157 1146.73 178.276 1146.73 180.772V220.696C1146.73 222.983 1148.4 226.103 1150.27 227.35L1169.82 239.827L1191.65 216.121L1180.42 210.715C1178.34 209.675 1176.68 206.972 1176.68 204.685V164.552C1176.68 162.265 1175.22 158.938 1173.35 157.274ZM1236.6 130.45L1265.09 157.274C1266.75 158.938 1268.21 162.265 1268.21 164.552V224.855L1238.47 239.827V229.222L1223.5 239.827L1196.67 214.042C1195.01 212.378 1193.56 209.051 1193.56 206.556V165.176L1214.14 154.779L1208.53 149.996L1236.6 130.45ZM1238.47 239.827L1251.02 255.822L1246.02 263.82L1235.14 252.823L1238.47 239.827ZM1223.5 163.097V190.545C1223.5 193.04 1224.75 196.367 1226.62 198.031L1238.47 209.467V180.564C1238.47 178.276 1237.01 174.949 1235.14 173.494L1223.5 163.097Z" fill="white"/>
<path d="M643.022 98.8432L627.011 98.8432C624.723 98.8432 621.396 100.299 619.941 102.17L611.207 112.567L630.754 136.896L634.497 132.114C635.952 130.242 638.447 128.579 640.111 128.579L642.814 128.579L671.51 128.579L741.378 128.579C743.873 128.579 748.032 125.044 748.032 125.044L725.366 98.8432L671.51 98.8432L643.022 98.8432Z" fill="white"/>
<path d="M230.459 91.8693L217.32 102.569L230.459 113.863L245.312 102.569L230.459 91.8693Z" fill="white"/>
<path d="M824.289 91.8693L811.15 102.569L824.289 113.863L839.142 102.569L824.289 91.8693Z" fill="white"/>
<path d="M266.449 91.8693L253.31 102.569L266.449 113.863L281.302 102.569L266.449 91.8693Z" fill="white"/>
<path d="M860.279 91.8693L847.14 102.569L860.279 113.863L875.132 102.569L860.279 91.8693Z" fill="white"/>
<path d="M1146.88 245.616L1130.87 245.616C1128.58 245.616 1125.25 247.072 1123.8 248.944L1115.06 259.341L1134.61 283.67L1138.35 278.887C1139.81 277.015 1142.3 275.352 1143.97 275.352L1146.67 275.352L1175.37 275.352L1245.23 275.352C1247.73 275.352 1250.64 273.896 1251.89 271.817L1264.36 252.479L1240.66 230.645L1235.46 241.666C1234.42 243.745 1231.72 245.616 1229.22 245.616L1175.37 245.616L1146.88 245.616Z" fill="white"/>
<path d="M378.112 310.793V314H366.333V310.793H378.112ZM367.461 290.539V314H363.416V290.539H367.461ZM415.712 301.625V302.914C415.712 304.687 415.481 306.276 415.019 307.684C414.557 309.091 413.896 310.289 413.037 311.277C412.188 312.265 411.168 313.022 409.975 313.549C408.783 314.064 407.462 314.322 406.011 314.322C404.572 314.322 403.256 314.064 402.064 313.549C400.882 313.022 399.856 312.265 398.986 311.277C398.116 310.289 397.439 309.091 396.956 307.684C396.483 306.276 396.247 304.687 396.247 302.914V301.625C396.247 299.853 396.483 298.268 396.956 296.872C397.428 295.464 398.094 294.267 398.954 293.278C399.824 292.279 400.85 291.522 402.031 291.006C403.224 290.48 404.54 290.217 405.979 290.217C407.429 290.217 408.751 290.48 409.943 291.006C411.135 291.522 412.161 292.279 413.021 293.278C413.88 294.267 414.541 295.464 415.003 296.872C415.475 298.268 415.712 299.853 415.712 301.625ZM411.667 302.914V301.593C411.667 300.282 411.538 299.127 411.28 298.128C411.033 297.119 410.663 296.275 410.169 295.599C409.685 294.911 409.089 294.396 408.38 294.052C407.671 293.697 406.871 293.52 405.979 293.52C405.088 293.52 404.293 293.697 403.594 294.052C402.896 294.396 402.3 294.911 401.806 295.599C401.322 296.275 400.952 297.119 400.694 298.128C400.436 299.127 400.307 300.282 400.307 301.593V302.914C400.307 304.225 400.436 305.385 400.694 306.395C400.952 307.404 401.328 308.258 401.822 308.957C402.327 309.644 402.928 310.165 403.627 310.52C404.325 310.863 405.12 311.035 406.011 311.035C406.914 311.035 407.714 310.863 408.412 310.52C409.11 310.165 409.701 309.644 410.185 308.957C410.668 308.258 411.033 307.404 411.28 306.395C411.538 305.385 411.667 304.225 411.667 302.914ZM454.601 302.012V310.971C454.268 311.411 453.747 311.895 453.038 312.421C452.339 312.937 451.41 313.382 450.25 313.758C449.09 314.134 447.645 314.322 445.916 314.322C444.444 314.322 443.096 314.075 441.871 313.581C440.647 313.076 439.588 312.34 438.697 311.374C437.816 310.407 437.134 309.23 436.65 307.845C436.167 306.448 435.925 304.858 435.925 303.075V301.448C435.925 299.675 436.146 298.096 436.586 296.71C437.037 295.314 437.682 294.132 438.52 293.166C439.357 292.199 440.367 291.468 441.549 290.974C442.741 290.469 444.089 290.217 445.593 290.217C447.516 290.217 449.106 290.539 450.363 291.184C451.63 291.817 452.608 292.698 453.295 293.826C453.983 294.954 454.418 296.243 454.601 297.693H450.637C450.508 296.877 450.255 296.146 449.879 295.502C449.514 294.857 448.988 294.353 448.3 293.987C447.624 293.611 446.743 293.423 445.658 293.423C444.723 293.423 443.901 293.601 443.192 293.955C442.483 294.31 441.893 294.831 441.42 295.518C440.958 296.206 440.609 297.043 440.373 298.032C440.136 299.02 440.018 300.148 440.018 301.416V303.075C440.018 304.364 440.152 305.508 440.421 306.507C440.7 307.506 441.098 308.35 441.613 309.037C442.14 309.725 442.779 310.246 443.531 310.6C444.283 310.944 445.131 311.116 446.077 311.116C447.001 311.116 447.758 311.041 448.349 310.89C448.939 310.729 449.407 310.541 449.751 310.326C450.105 310.101 450.379 309.886 450.572 309.682V305.025H445.69V302.012H454.601ZM480.228 290.539V314H476.184V290.539H480.228ZM514.429 307.958C514.429 307.474 514.353 307.044 514.203 306.668C514.063 306.292 513.811 305.949 513.446 305.637C513.08 305.326 512.565 305.025 511.899 304.735C511.244 304.434 510.406 304.128 509.385 303.816C508.268 303.473 507.237 303.091 506.291 302.672C505.357 302.243 504.54 301.749 503.842 301.19C503.144 300.621 502.601 299.971 502.215 299.24C501.828 298.499 501.635 297.645 501.635 296.678C501.635 295.722 501.833 294.852 502.231 294.068C502.639 293.284 503.214 292.607 503.955 292.038C504.707 291.458 505.593 291.012 506.614 290.7C507.634 290.378 508.762 290.217 509.997 290.217C511.738 290.217 513.236 290.539 514.493 291.184C515.761 291.828 516.733 292.693 517.41 293.778C518.097 294.863 518.441 296.061 518.441 297.371H514.429C514.429 296.598 514.262 295.916 513.929 295.325C513.607 294.723 513.113 294.25 512.447 293.907C511.791 293.563 510.959 293.391 509.949 293.391C508.993 293.391 508.198 293.536 507.564 293.826C506.931 294.116 506.458 294.508 506.146 295.002C505.835 295.497 505.679 296.055 505.679 296.678C505.679 297.119 505.781 297.521 505.985 297.887C506.189 298.241 506.501 298.574 506.92 298.886C507.339 299.187 507.865 299.471 508.499 299.74C509.133 300.008 509.879 300.266 510.739 300.513C512.038 300.9 513.172 301.33 514.139 301.802C515.105 302.264 515.911 302.791 516.556 303.381C517.2 303.972 517.683 304.644 518.006 305.396C518.328 306.137 518.489 306.98 518.489 307.925C518.489 308.914 518.29 309.805 517.893 310.6C517.495 311.384 516.926 312.056 516.185 312.614C515.454 313.162 514.574 313.586 513.542 313.887C512.522 314.177 511.383 314.322 510.126 314.322C508.998 314.322 507.887 314.172 506.791 313.871C505.706 313.57 504.718 313.114 503.826 312.501C502.934 311.878 502.225 311.105 501.699 310.181C501.173 309.247 500.91 308.156 500.91 306.91H504.954C504.954 307.673 505.083 308.323 505.341 308.86C505.609 309.397 505.98 309.837 506.453 310.181C506.925 310.514 507.473 310.761 508.096 310.922C508.73 311.083 509.407 311.164 510.126 311.164C511.072 311.164 511.861 311.03 512.495 310.761C513.14 310.493 513.623 310.117 513.945 309.633C514.267 309.15 514.429 308.591 514.429 307.958ZM548.548 290.539V314H544.536V290.539H548.548ZM555.912 290.539V293.762H537.237V290.539H555.912ZM580.154 290.539V314H576.11V290.539H580.154ZM615.869 306.362H619.897C619.768 307.898 619.339 309.268 618.608 310.471C617.878 311.664 616.852 312.604 615.53 313.291C614.209 313.979 612.603 314.322 610.713 314.322C609.262 314.322 607.957 314.064 606.797 313.549C605.637 313.022 604.643 312.281 603.816 311.325C602.989 310.358 602.355 309.193 601.915 307.829C601.485 306.464 601.27 304.939 601.27 303.252V301.303C601.27 299.616 601.49 298.091 601.931 296.727C602.382 295.362 603.026 294.197 603.864 293.23C604.702 292.252 605.707 291.506 606.878 290.99C608.059 290.475 609.386 290.217 610.858 290.217C612.727 290.217 614.306 290.561 615.595 291.248C616.884 291.936 617.883 292.886 618.592 294.1C619.312 295.314 619.752 296.705 619.913 298.273H615.885C615.777 297.264 615.541 296.399 615.176 295.679C614.821 294.959 614.295 294.412 613.597 294.036C612.899 293.649 611.985 293.456 610.858 293.456C609.934 293.456 609.128 293.627 608.441 293.971C607.753 294.315 607.178 294.82 606.716 295.486C606.255 296.152 605.905 296.974 605.669 297.951C605.443 298.918 605.331 300.024 605.331 301.271V303.252C605.331 304.434 605.433 305.508 605.637 306.475C605.852 307.431 606.174 308.253 606.604 308.94C607.044 309.628 607.603 310.16 608.279 310.536C608.956 310.912 609.767 311.1 610.713 311.1C611.862 311.1 612.791 310.917 613.5 310.552C614.22 310.187 614.762 309.655 615.128 308.957C615.504 308.248 615.751 307.383 615.869 306.362ZM652.744 307.958C652.744 307.474 652.669 307.044 652.518 306.668C652.378 306.292 652.126 305.949 651.761 305.637C651.396 305.326 650.88 305.025 650.214 304.735C649.559 304.434 648.721 304.128 647.7 303.816C646.583 303.473 645.552 303.091 644.607 302.672C643.672 302.243 642.856 301.749 642.157 301.19C641.459 300.621 640.917 299.971 640.53 299.24C640.143 298.499 639.95 297.645 639.95 296.678C639.95 295.722 640.148 294.852 640.546 294.068C640.954 293.284 641.529 292.607 642.27 292.038C643.022 291.458 643.908 291.012 644.929 290.7C645.949 290.378 647.077 290.217 648.313 290.217C650.053 290.217 651.551 290.539 652.808 291.184C654.076 291.828 655.048 292.693 655.725 293.778C656.412 294.863 656.756 296.061 656.756 297.371H652.744C652.744 296.598 652.577 295.916 652.244 295.325C651.922 294.723 651.428 294.25 650.762 293.907C650.107 293.563 649.274 293.391 648.264 293.391C647.308 293.391 646.513 293.536 645.879 293.826C645.246 294.116 644.773 294.508 644.461 295.002C644.15 295.497 643.994 296.055 643.994 296.678C643.994 297.119 644.096 297.521 644.3 297.887C644.504 298.241 644.816 298.574 645.235 298.886C645.654 299.187 646.18 299.471 646.814 299.74C647.448 300.008 648.194 300.266 649.054 300.513C650.354 300.9 651.487 301.33 652.454 301.802C653.42 302.264 654.226 302.791 654.871 303.381C655.515 303.972 655.999 304.644 656.321 305.396C656.643 306.137 656.804 306.98 656.804 307.925C656.804 308.914 656.606 309.805 656.208 310.6C655.811 311.384 655.241 312.056 654.5 312.614C653.77 313.162 652.889 313.586 651.857 313.887C650.837 314.177 649.698 314.322 648.441 314.322C647.314 314.322 646.202 314.172 645.106 313.871C644.021 313.57 643.033 313.114 642.141 312.501C641.25 311.878 640.541 311.105 640.014 310.181C639.488 309.247 639.225 308.156 639.225 306.91H643.269C643.269 307.673 643.398 308.323 643.656 308.86C643.924 309.397 644.295 309.837 644.768 310.181C645.24 310.514 645.788 310.761 646.411 310.922C647.045 311.083 647.722 311.164 648.441 311.164C649.387 311.164 650.176 311.03 650.81 310.761C651.455 310.493 651.938 310.117 652.26 309.633C652.583 309.15 652.744 308.591 652.744 307.958ZM714.602 307.958C714.602 307.474 714.527 307.044 714.376 306.668C714.237 306.292 713.984 305.949 713.619 305.637C713.254 305.326 712.738 305.025 712.072 304.735C711.417 304.434 710.579 304.128 709.558 303.816C708.441 303.473 707.41 303.091 706.465 302.672C705.53 302.243 704.714 301.749 704.016 301.19C703.317 300.621 702.775 299.971 702.388 299.24C702.001 298.499 701.808 297.645 701.808 296.678C701.808 295.722 702.007 294.852 702.404 294.068C702.812 293.284 703.387 292.607 704.128 292.038C704.88 291.458 705.766 291.012 706.787 290.7C707.807 290.378 708.935 290.217 710.171 290.217C711.911 290.217 713.41 290.539 714.666 291.184C715.934 291.828 716.906 292.693 717.583 293.778C718.27 294.863 718.614 296.061 718.614 297.371H714.602C714.602 296.598 714.435 295.916 714.102 295.325C713.78 294.723 713.286 294.25 712.62 293.907C711.965 293.563 711.132 293.391 710.122 293.391C709.166 293.391 708.371 293.536 707.738 293.826C707.104 294.116 706.631 294.508 706.32 295.002C706.008 295.497 705.852 296.055 705.852 296.678C705.852 297.119 705.954 297.521 706.159 297.887C706.363 298.241 706.674 298.574 707.093 298.886C707.512 299.187 708.038 299.471 708.672 299.74C709.306 300.008 710.053 300.266 710.912 300.513C712.212 300.9 713.345 301.33 714.312 301.802C715.279 302.264 716.084 302.791 716.729 303.381C717.373 303.972 717.857 304.644 718.179 305.396C718.501 306.137 718.662 306.98 718.662 307.925C718.662 308.914 718.464 309.805 718.066 310.6C717.669 311.384 717.099 312.056 716.358 312.614C715.628 313.162 714.747 313.586 713.716 313.887C712.695 314.177 711.557 314.322 710.3 314.322C709.172 314.322 708.06 314.172 706.964 313.871C705.879 313.57 704.891 313.114 703.999 312.501C703.108 311.878 702.399 311.105 701.872 310.181C701.346 309.247 701.083 308.156 701.083 306.91H705.127C705.127 307.673 705.256 308.323 705.514 308.86C705.783 309.397 706.153 309.837 706.626 310.181C707.099 310.514 707.646 310.761 708.269 310.922C708.903 311.083 709.58 311.164 710.3 311.164C711.245 311.164 712.035 311.03 712.668 310.761C713.313 310.493 713.796 310.117 714.119 309.633C714.441 309.15 714.602 308.591 714.602 307.958ZM757.777 301.625V302.914C757.777 304.687 757.546 306.276 757.084 307.684C756.622 309.091 755.962 310.289 755.102 311.277C754.254 312.265 753.233 313.022 752.041 313.549C750.848 314.064 749.527 314.322 748.077 314.322C746.638 314.322 745.322 314.064 744.129 313.549C742.948 313.022 741.922 312.265 741.052 311.277C740.181 310.289 739.505 309.091 739.021 307.684C738.549 306.276 738.312 304.687 738.312 302.914V301.625C738.312 299.853 738.549 298.268 739.021 296.872C739.494 295.464 740.16 294.267 741.019 293.278C741.889 292.279 742.915 291.522 744.097 291.006C745.289 290.48 746.605 290.217 748.045 290.217C749.495 290.217 750.816 290.48 752.009 291.006C753.201 291.522 754.227 292.279 755.086 293.278C755.946 294.267 756.606 295.464 757.068 296.872C757.541 298.268 757.777 299.853 757.777 301.625ZM753.733 302.914V301.593C753.733 300.282 753.604 299.127 753.346 298.128C753.099 297.119 752.728 296.275 752.234 295.599C751.751 294.911 751.155 294.396 750.446 294.052C749.737 293.697 748.936 293.52 748.045 293.52C747.153 293.52 746.358 293.697 745.66 294.052C744.962 294.396 744.366 294.911 743.871 295.599C743.388 296.275 743.017 297.119 742.76 298.128C742.502 299.127 742.373 300.282 742.373 301.593V302.914C742.373 304.225 742.502 305.385 742.76 306.395C743.017 307.404 743.393 308.258 743.888 308.957C744.392 309.644 744.994 310.165 745.692 310.52C746.39 310.863 747.185 311.035 748.077 311.035C748.979 311.035 749.78 310.863 750.478 310.52C751.176 310.165 751.767 309.644 752.25 308.957C752.734 308.258 753.099 307.404 753.346 306.395C753.604 305.385 753.733 304.225 753.733 302.914ZM782.696 290.539V314H778.652V290.539H782.696ZM792.267 300.803V304.01H781.665V300.803H792.267ZM793.605 290.539V293.762H781.665V290.539H793.605ZM823.632 290.539V314H819.619V290.539H823.632ZM830.995 290.539V293.762H812.32V290.539H830.995ZM857.058 308.731L861.731 290.539H864.18L863.906 295.228L858.911 314H856.365L857.058 308.731ZM853.562 290.539L857.348 308.586L857.687 314H854.98L849.549 290.539H853.562ZM869.482 308.538L873.22 290.539H877.248L871.818 314H869.111L869.482 308.538ZM865.131 290.539L869.755 308.779L870.432 314H867.886L862.972 295.228L862.714 290.539H865.131ZM905.502 293.665L898.493 314H894.255L903.085 290.539H905.792L905.502 293.665ZM911.368 314L904.342 293.665L904.036 290.539H906.759L915.622 314H911.368ZM911.029 305.299V308.505H898.268V305.299H911.029ZM935.078 290.539H943.376C945.16 290.539 946.68 290.808 947.936 291.345C949.193 291.882 950.155 292.677 950.821 293.729C951.497 294.771 951.836 296.061 951.836 297.597C951.836 298.768 951.621 299.799 951.191 300.69C950.762 301.582 950.155 302.334 949.371 302.946C948.586 303.548 947.652 304.015 946.567 304.348L945.342 304.944H937.882L937.85 301.738H943.441C944.408 301.738 945.213 301.566 945.858 301.222C946.502 300.878 946.986 300.411 947.308 299.82C947.641 299.219 947.808 298.542 947.808 297.79C947.808 296.974 947.646 296.265 947.324 295.663C947.013 295.051 946.529 294.583 945.874 294.261C945.219 293.928 944.386 293.762 943.376 293.762H939.122V314H935.078V290.539ZM948.468 314L942.957 303.462L947.195 303.446L952.787 313.791V314H948.468ZM988.05 310.793V314H975.595V310.793H988.05ZM976.739 290.539V314H972.694V290.539H976.739ZM986.423 300.336V303.494H975.595V300.336H986.423ZM987.97 290.539V293.762H975.595V290.539H987.97Z" fill="white"/>
<path d="M1261.5 126.75V108.084H1267.13C1269.42 108.084 1271.11 108.573 1272.18 109.549C1273.25 110.525 1273.79 111.928 1273.79 113.756C1273.79 115.09 1273.45 116.142 1272.78 116.912C1272.1 117.668 1271.34 118.218 1270.49 118.562L1275.39 126.75H1271.56L1267.54 119.655H1264.92V126.75H1261.5ZM1264.92 116.83H1267.03C1268.13 116.83 1268.95 116.555 1269.5 116.005C1270.05 115.441 1270.32 114.719 1270.32 113.839C1270.32 112.835 1270.07 112.113 1269.56 111.673C1269.07 111.22 1268.21 110.993 1266.98 110.993H1264.92V116.83ZM1267.5 133C1265.26 133 1263.19 132.622 1261.3 131.866C1259.41 131.096 1257.77 130.016 1256.37 128.627C1254.98 127.239 1253.9 125.602 1253.13 123.719C1252.38 121.821 1252 119.752 1252 117.51C1252 115.365 1252.38 113.358 1253.15 111.488C1253.94 109.604 1255.03 107.954 1256.43 106.538C1257.85 105.121 1259.5 104.014 1261.38 103.217C1263.26 102.406 1265.3 102 1267.5 102C1269.64 102 1271.65 102.385 1273.52 103.155C1275.4 103.911 1277.05 104.991 1278.47 106.393C1279.88 107.782 1280.99 109.418 1281.78 111.302C1282.59 113.186 1283 115.255 1283 117.51C1283 119.752 1282.62 121.821 1281.85 123.719C1281.09 125.602 1280.01 127.239 1278.61 128.627C1277.22 130.016 1275.59 131.096 1273.7 131.866C1271.82 132.622 1269.75 133 1267.5 133ZM1267.5 130.298C1269.23 130.298 1270.85 129.989 1272.36 129.37C1273.88 128.737 1275.21 127.851 1276.36 126.709C1277.52 125.568 1278.42 124.22 1279.06 122.667C1279.71 121.099 1280.03 119.38 1280.03 117.51C1280.03 115.75 1279.72 114.093 1279.08 112.54C1278.45 110.986 1277.57 109.618 1276.42 108.435C1275.3 107.253 1273.97 106.331 1272.45 105.671C1270.94 104.998 1269.29 104.661 1267.5 104.661C1265.7 104.661 1264.03 104.977 1262.49 105.609C1260.97 106.242 1259.63 107.136 1258.49 108.291C1257.35 109.432 1256.47 110.786 1255.83 112.354C1255.2 113.921 1254.89 115.64 1254.89 117.51C1254.89 119.38 1255.19 121.099 1255.81 122.667C1256.43 124.22 1257.3 125.568 1258.43 126.709C1259.56 127.851 1260.89 128.737 1262.43 129.37C1263.97 129.989 1265.66 130.298 1267.5 130.298Z" fill="white"/>
</svg>
