<svg width="1200" height="400" viewBox="0 0 1200 400" fill="none" xmlns="http://www.w3.org/2000/svg">
<g clip-path="url(#clip0_37_124)">
<path fill-rule="evenodd" clip-rule="evenodd" d="M271.851 123.34V113.359C271.851 110.864 270.188 107.745 268.316 106.289L263.534 102.546L287.863 83L298.26 91.7335C300.131 93.1891 301.587 96.5161 301.587 98.8035V140.391L314.687 131.242L343.383 158.274C345.046 159.938 346.502 163.057 346.502 165.552V205.477C346.502 207.972 348.165 210.675 350.453 211.715L361.473 216.913L339.64 240.619L320.301 228.142C318.222 226.895 316.558 223.983 316.558 221.488V181.564C316.558 179.068 315.103 175.949 313.231 174.286L301.587 164.097V225.855L271.851 240.827V127.829L250.13 151.828V205.685C250.13 208.18 252.001 210.883 254.08 211.923L265.101 217.121L243.268 240.827L223.929 228.35C221.85 227.103 220.394 224.191 220.394 221.696V151.828L206.878 136.857L220.394 123.132V120.429C220.394 118.766 218.731 116.27 216.859 114.815L212.076 111.072L236.405 91.5255L246.802 100.259C248.674 101.715 250.13 105.042 250.13 107.329V123.34H271.851ZM119.566 129.435V205.477C119.566 206.4 119.246 207.352 118.948 208.238C118.442 209.745 118 211.06 119.31 211.715L134.329 216.913L112.496 240.619L93.1572 228.142C91.0778 226.895 89.4143 223.776 89.4143 221.488V145.238C89.4143 142.951 87.9587 139.832 86.2952 138.168L74.6505 127.979V225.855L44.7071 240.827V145.446C44.7071 142.951 43.2516 139.832 41.588 138.168L29.9434 127.979V225.855L0 240.827V127.979L18.5067 117.998L12.6844 112.799L40.7563 93.2531L59.8868 111.136L85.4634 93.2531L116.239 122.157C118.11 123.82 119.566 126.939 119.566 129.435ZM134.493 166.176L155.079 155.987L149.464 150.996L177.536 131.658L206.024 158.482C207.688 160.146 209.143 163.265 209.143 165.76V207.348L164.436 241.035L137.612 215.042C135.948 213.378 134.493 210.259 134.493 207.764V166.176ZM164.436 191.753C164.436 194.248 165.684 197.367 167.555 199.031L179.408 210.675V181.772C179.408 179.276 177.952 176.157 176.081 174.494L164.436 164.305V191.753ZM399.565 194.04L448.015 168.048L408.923 131.45L380.851 150.996L386.465 155.987L365.879 166.176V207.764C365.879 210.051 367.335 213.378 368.998 215.042L395.822 240.827L422.439 222.112L398.942 199.031C397.07 197.367 397.486 195.08 399.565 194.04ZM395.822 164.097L414.745 180.94L395.822 191.129V164.097ZM519.077 151.62L494.333 169.087L486.015 162.641V206.516C486.015 208.804 487.678 211.715 489.758 212.755L500.987 217.953L479.153 241.658L459.607 229.182C457.735 227.934 456.072 225.023 456.072 222.528V162.225C456.072 159.73 454.408 156.819 452.329 155.571L446.09 151.828L470.419 132.282L482.272 141.015L494.125 132.282L519.077 151.62ZM635.176 100.691H630.386L627.059 97.6039L616.662 88.8704L598.187 100.691L556.663 100.483L547.202 129.179H600.651V219.041C600.651 221.536 602.106 224.447 604.186 225.695L623.524 238.171L645.358 214.466L634.337 209.268C632.257 208.228 630.386 205.525 630.386 203.03V129.179L641.534 116.862H635.176V100.691ZM717.27 151.62L692.525 169.087L684.208 162.641V206.516C684.208 208.804 685.871 211.715 687.951 212.755L699.18 217.953L677.346 241.658L657.799 229.182C655.928 227.934 654.265 225.023 654.265 222.528V162.225C654.265 159.73 652.601 156.819 650.522 155.571L644.283 151.828L668.612 132.282L680.465 141.015L692.318 132.282L717.27 151.62ZM765.732 151.412V210.467L753.879 199.031C752.216 197.367 750.76 194.04 750.76 191.753V155.571C750.76 153.076 749.305 149.957 747.433 148.501L734.541 137.896L713.123 161.186L717.074 163.681C719.153 165.136 720.817 168.048 721.025 170.335V207.764C721.025 210.051 722.272 213.378 724.144 215.042L750.76 240.827L769.059 228.142L788.813 240.827L810.647 217.121L799.626 211.923C797.339 210.883 795.675 208.18 795.675 205.685V137.896L765.732 151.412ZM836.477 191.753C836.477 194.04 837.725 197.367 839.596 199.031L863.301 222.112L836.477 240.827L809.653 215.042C807.989 213.378 806.534 210.051 806.534 207.764V166.176L827.12 155.987L821.505 150.996L849.577 131.45L877.233 157.235L851.657 177.405L836.477 164.097V191.753ZM879.458 113.359V240.827L909.193 225.855V190.089L921.046 200.278C922.709 201.942 924.165 205.061 924.165 207.556V247.481C924.165 249.976 925.828 252.887 927.908 254.135L947.246 266.611L969.08 242.906L958.059 237.708C955.772 236.668 954.108 233.965 954.108 231.469V191.545C954.108 189.049 952.653 185.93 950.989 184.267L929.363 163.889L944.959 152.452L921.877 132.49L909.193 141.847V98.8035C909.193 96.5161 907.737 93.1891 905.866 91.7335L895.469 83L871.14 102.546L875.923 106.289C877.794 107.745 879.458 110.864 879.458 113.359ZM966.379 221.696V169.919L974.073 163.681L957.021 150.789L981.351 132.698L1006.51 151.204L996.322 158.69V205.685C996.322 207.972 997.986 210.883 1000.27 211.715L1011.29 217.121L989.46 240.827L970.122 228.35C968.042 227.103 966.379 223.983 966.379 221.696ZM1091.35 158.274L1062.86 131.658L1048.1 141.847L1037.08 131.658L1009.01 151.204L1016.7 158.066C1018.57 159.522 1020.03 162.849 1020.03 165.136V240.827L1049.97 226.063V164.305L1061.41 174.494C1063.28 176.157 1064.73 179.276 1064.73 181.772V221.696C1064.73 223.983 1066.4 227.103 1068.27 228.35L1087.82 240.827L1109.65 217.121L1098.42 211.715C1096.34 210.675 1094.68 207.972 1094.68 205.685V165.552C1094.68 163.265 1093.22 159.938 1091.35 158.274ZM1154.6 131.45L1183.09 158.274C1184.75 159.938 1186.21 163.265 1186.21 165.552V225.855L1156.47 240.827V230.222L1141.5 240.827L1114.67 215.042C1113.01 213.378 1111.56 210.051 1111.56 207.556V166.176L1132.14 155.779L1126.53 150.996L1154.6 131.45ZM1156.47 240.827L1169.02 256.822L1164.02 264.82L1153.14 253.823L1156.47 240.827ZM1141.5 164.097V191.545C1141.5 194.04 1142.75 197.367 1144.62 199.031L1156.47 210.467V181.564C1156.47 179.276 1155.01 175.949 1153.14 174.494L1141.5 164.097Z" fill="white"/>
<path d="M561.022 99.8432L545.011 99.8432C542.723 99.8432 539.396 101.299 537.941 103.17L529.207 113.567L548.754 137.896L552.497 133.114C553.952 131.242 556.447 129.579 558.111 129.579L560.814 129.579L589.51 129.579L659.378 129.579C661.873 129.579 666.032 126.044 666.032 126.044L643.366 99.8432L589.51 99.8432L561.022 99.8432Z" fill="white"/>
<path d="M148.459 92.8693L135.32 103.569L148.459 114.863L163.312 103.569L148.459 92.8693Z" fill="white"/>
<path d="M742.289 92.8693L729.15 103.569L742.289 114.863L757.142 103.569L742.289 92.8693Z" fill="white"/>
<path d="M184.449 92.8693L171.31 103.569L184.449 114.863L199.302 103.569L184.449 92.8693Z" fill="white"/>
<path d="M778.279 92.8693L765.14 103.569L778.279 114.863L793.132 103.569L778.279 92.8693Z" fill="white"/>
<path d="M1064.88 246.616L1048.87 246.616C1046.58 246.616 1043.25 248.072 1041.8 249.944L1033.06 260.341L1052.61 284.67L1056.35 279.887C1057.81 278.015 1060.3 276.352 1061.97 276.352L1064.67 276.352L1093.37 276.352L1163.23 276.352C1165.73 276.352 1168.64 274.896 1169.89 272.817L1182.36 253.479L1158.66 231.645L1153.46 242.666C1152.42 244.745 1149.72 246.616 1147.22 246.616L1093.37 246.616L1064.88 246.616Z" fill="white"/>
<path d="M250.527 314H245.515L245.548 310.793H250.527C251.977 310.793 253.191 310.477 254.168 309.843C255.156 309.209 255.898 308.301 256.392 307.12C256.897 305.938 257.149 304.531 257.149 302.898V301.625C257.149 300.357 257.004 299.235 256.714 298.257C256.435 297.28 256.016 296.458 255.457 295.792C254.909 295.126 254.233 294.621 253.427 294.277C252.632 293.934 251.714 293.762 250.672 293.762H245.419V290.539H250.672C252.229 290.539 253.653 290.802 254.942 291.329C256.231 291.844 257.343 292.591 258.277 293.568C259.222 294.546 259.948 295.717 260.452 297.081C260.957 298.445 261.21 299.971 261.21 301.657V302.898C261.21 304.584 260.957 306.11 260.452 307.474C259.948 308.838 259.222 310.009 258.277 310.987C257.332 311.954 256.204 312.7 254.893 313.227C253.594 313.742 252.138 314 250.527 314ZM247.755 290.539V314H243.711V290.539H247.755Z" fill="white"/>
<path d="M286.419 290.539V314H282.374V290.539H286.419Z" fill="white"/>
<path d="M320.619 307.958C320.619 307.474 320.544 307.044 320.393 306.668C320.254 306.292 320.001 305.949 319.636 305.637C319.271 305.326 318.755 305.025 318.089 304.735C317.434 304.434 316.596 304.128 315.575 303.816C314.458 303.473 313.427 303.091 312.482 302.672C311.547 302.243 310.731 301.749 310.032 301.19C309.334 300.621 308.792 299.971 308.405 299.24C308.018 298.499 307.825 297.645 307.825 296.678C307.825 295.722 308.024 294.852 308.421 294.068C308.829 293.284 309.404 292.607 310.145 292.038C310.897 291.458 311.783 291.012 312.804 290.7C313.824 290.378 314.952 290.217 316.188 290.217C317.928 290.217 319.426 290.539 320.683 291.184C321.951 291.828 322.923 292.693 323.6 293.778C324.287 294.863 324.631 296.061 324.631 297.371H320.619C320.619 296.598 320.452 295.916 320.119 295.325C319.797 294.723 319.303 294.25 318.637 293.907C317.982 293.563 317.149 293.391 316.139 293.391C315.183 293.391 314.388 293.536 313.754 293.826C313.121 294.116 312.648 294.508 312.337 295.002C312.025 295.497 311.869 296.055 311.869 296.678C311.869 297.119 311.971 297.521 312.175 297.887C312.379 298.241 312.691 298.574 313.11 298.886C313.529 299.187 314.055 299.471 314.689 299.74C315.323 300.008 316.069 300.266 316.929 300.513C318.229 300.9 319.362 301.33 320.329 301.802C321.296 302.264 322.101 302.791 322.746 303.381C323.39 303.972 323.874 304.644 324.196 305.396C324.518 306.137 324.679 306.98 324.679 307.925C324.679 308.914 324.481 309.805 324.083 310.6C323.686 311.384 323.116 312.056 322.375 312.614C321.645 313.162 320.764 313.586 319.733 313.887C318.712 314.177 317.573 314.322 316.316 314.322C315.189 314.322 314.077 314.172 312.981 313.871C311.896 313.57 310.908 313.114 310.016 312.501C309.125 311.878 308.416 311.105 307.889 310.181C307.363 309.247 307.1 308.156 307.1 306.91H311.144C311.144 307.673 311.273 308.323 311.531 308.86C311.799 309.397 312.17 309.837 312.643 310.181C313.115 310.514 313.663 310.761 314.286 310.922C314.92 311.083 315.597 311.164 316.316 311.164C317.262 311.164 318.051 311.03 318.685 310.761C319.33 310.493 319.813 310.117 320.135 309.633C320.458 309.15 320.619 308.591 320.619 307.958Z" fill="white"/>
<path d="M353.997 305.25H347.89V302.044H353.997C355.061 302.044 355.92 301.872 356.575 301.528C357.23 301.185 357.709 300.712 358.009 300.11C358.321 299.498 358.477 298.8 358.477 298.016C358.477 297.274 358.321 296.582 358.009 295.937C357.709 295.282 357.23 294.755 356.575 294.358C355.92 293.96 355.061 293.762 353.997 293.762H349.131V314H345.086V290.539H353.997C355.813 290.539 357.354 290.861 358.622 291.506C359.9 292.14 360.872 293.021 361.538 294.148C362.204 295.266 362.537 296.544 362.537 297.983C362.537 299.498 362.204 300.798 361.538 301.883C360.872 302.968 359.9 303.8 358.622 304.38C357.354 304.96 355.813 305.25 353.997 305.25Z" fill="white"/>
<path d="M389.68 293.665L382.67 314H378.433L387.263 290.539H389.97L389.68 293.665ZM395.545 314L388.519 293.665L388.213 290.539H390.936L399.799 314H395.545ZM395.206 305.299V308.505H382.445V305.299H395.206Z" fill="white"/>
<path d="M426.877 290.539V314H422.865V290.539H426.877ZM434.241 290.539V293.762H415.565V290.539H434.241Z" fill="white"/>
<path d="M467.571 306.362H471.599C471.47 307.898 471.04 309.268 470.31 310.471C469.579 311.664 468.553 312.604 467.232 313.291C465.911 313.979 464.305 314.322 462.414 314.322C460.964 314.322 459.659 314.064 458.499 313.549C457.339 313.022 456.345 312.281 455.518 311.325C454.691 310.358 454.057 309.193 453.616 307.829C453.187 306.464 452.972 304.939 452.972 303.252V301.303C452.972 299.616 453.192 298.091 453.633 296.727C454.084 295.362 454.728 294.197 455.566 293.23C456.404 292.252 457.408 291.506 458.579 290.99C459.761 290.475 461.088 290.217 462.559 290.217C464.428 290.217 466.008 290.561 467.297 291.248C468.586 291.936 469.585 292.886 470.294 294.1C471.013 295.314 471.454 296.705 471.615 298.273H467.587C467.479 297.264 467.243 296.399 466.878 295.679C466.523 294.959 465.997 294.412 465.299 294.036C464.6 293.649 463.687 293.456 462.559 293.456C461.636 293.456 460.83 293.627 460.142 293.971C459.455 294.315 458.88 294.82 458.418 295.486C457.956 296.152 457.607 296.974 457.371 297.951C457.145 298.918 457.032 300.024 457.032 301.271V303.252C457.032 304.434 457.135 305.508 457.339 306.475C457.553 307.431 457.876 308.253 458.305 308.94C458.746 309.628 459.304 310.16 459.981 310.536C460.658 310.912 461.469 311.1 462.414 311.1C463.564 311.1 464.493 310.917 465.202 310.552C465.922 310.187 466.464 309.655 466.829 308.957C467.205 308.248 467.452 307.383 467.571 306.362Z" fill="white"/>
<path d="M507.604 300.336V303.542H495.148V300.336H507.604ZM496.147 290.539V314H492.103V290.539H496.147ZM510.714 290.539V314H506.685V290.539H510.714Z" fill="white"/>
<path d="M584.101 290.539H587.71L594.494 308.634L601.261 290.539H604.871L595.912 314H593.043L584.101 290.539ZM582.457 290.539H585.889L586.485 306.201V314H582.457V290.539ZM603.082 290.539H606.53V314H602.486V306.201L603.082 290.539Z" fill="white"/>
<path d="M637.588 293.665L630.579 314H626.341L635.171 290.539H637.878L637.588 293.665ZM643.453 314L636.428 293.665L636.122 290.539H638.845L647.707 314H643.453ZM643.115 305.299V308.505H630.353V305.299H643.115Z" fill="white"/>
<path d="M685.775 290.539V314H681.73L671.208 297.194V314H667.164V290.539H671.208L681.762 307.377V290.539H685.775Z" fill="white"/>
<path d="M716.849 293.665L709.84 314H705.602L714.432 290.539H717.139L716.849 293.665ZM722.714 314L715.689 293.665L715.383 290.539H718.106L726.968 314H722.714ZM722.376 305.299V308.505H709.614V305.299H722.376Z" fill="white"/>
<path d="M764.181 302.012V310.971C763.848 311.411 763.327 311.895 762.618 312.421C761.92 312.937 760.991 313.382 759.831 313.758C758.671 314.134 757.226 314.322 755.496 314.322C754.025 314.322 752.676 314.075 751.452 313.581C750.227 313.076 749.169 312.34 748.277 311.374C747.397 310.407 746.714 309.23 746.231 307.845C745.748 306.448 745.506 304.858 745.506 303.075V301.448C745.506 299.675 745.726 298.096 746.167 296.71C746.618 295.314 747.262 294.132 748.1 293.166C748.938 292.199 749.948 291.468 751.13 290.974C752.322 290.469 753.67 290.217 755.174 290.217C757.097 290.217 758.687 290.539 759.943 291.184C761.211 291.817 762.189 292.698 762.876 293.826C763.564 294.954 763.999 296.243 764.181 297.693H760.217C760.089 296.877 759.836 296.146 759.46 295.502C759.095 294.857 758.568 294.353 757.881 293.987C757.204 293.611 756.323 293.423 755.238 293.423C754.304 293.423 753.482 293.601 752.773 293.955C752.064 294.31 751.473 294.831 751.001 295.518C750.539 296.206 750.19 297.043 749.953 298.032C749.717 299.02 749.599 300.148 749.599 301.416V303.075C749.599 304.364 749.733 305.508 750.002 306.507C750.281 307.506 750.678 308.35 751.194 309.037C751.72 309.725 752.359 310.246 753.111 310.6C753.863 310.944 754.712 311.116 755.657 311.116C756.581 311.116 757.339 311.041 757.929 310.89C758.52 310.729 758.987 310.541 759.331 310.326C759.686 310.101 759.96 309.886 760.153 309.682V305.025H755.271V302.012H764.181Z" fill="white"/>
<path d="M800.847 310.793V314H788.391V310.793H800.847ZM789.535 290.539V314H785.491V290.539H789.535ZM799.219 300.336V303.494H788.391V300.336H799.219ZM800.766 290.539V293.762H788.391V290.539H800.766Z" fill="white"/>
<path d="M822.624 290.539H826.233L833.017 308.634L839.784 290.539H843.394L834.435 314H831.566L822.624 290.539ZM820.98 290.539H824.412L825.008 306.201V314H820.98V290.539ZM841.605 290.539H845.053V314H841.009V306.201L841.605 290.539Z" fill="white"/>
<path d="M882.041 310.793V314H869.585V310.793H882.041ZM870.729 290.539V314H866.685V290.539H870.729ZM880.413 300.336V303.494H869.585V300.336H880.413ZM881.96 290.539V293.762H869.585V290.539H881.96Z" fill="white"/>
<path d="M920.785 290.539V314H916.741L906.219 297.194V314H902.174V290.539H906.219L916.773 307.377V290.539H920.785Z" fill="white"/>
<path d="M951.601 290.539V314H947.589V290.539H951.601ZM958.965 290.539V293.762H940.29V290.539H958.965Z" fill="white"/>
</g>
<defs>
<clipPath id="clip0_37_124">
<rect width="1200" height="400" fill="white"/>
</clipPath>
</defs>
</svg>
