<svg width="228" height="228" viewBox="0 0 228 228" fill="none" xmlns="http://www.w3.org/2000/svg">
<path d="M0 187.794C0 194.69 3.87919 199 10.3442 199C16.8093 199 20.6885 194.69 20.6885 187.794C20.6885 180.898 16.8093 176.588 10.3442 176.588C3.87919 176.588 0 180.898 0 187.794ZM4.3103 187.794C4.3103 183.053 6.46505 180.467 10.3442 180.467C14.2233 180.467 16.3781 183.053 16.3781 187.794C16.3781 192.535 14.2233 195.121 10.3442 195.121C6.46505 195.121 4.3103 192.535 4.3103 187.794ZM36.2045 180.467V177.451L35.7734 177.02H31.4634L31.0323 176.588V174.864C31.0323 173.572 31.8942 173.14 32.7566 173.14H36.2045L36.6353 172.709V169.693L36.2045 169.262H32.7566C29.7395 169.262 26.7223 170.985 26.7223 174.864V176.588L26.2915 177.02H23.2744L22.8432 177.451V180.467L23.2744 180.898H26.2915L26.7223 181.329V198.139L27.1535 198.57H30.6015L31.0323 198.139V181.329L31.4634 180.898H35.7734L36.2045 180.467ZM74.994 198.139V195.121L64.6505 168.831L64.2193 168.399H60.3402L59.9094 168.831L49.5651 195.121V198.139L49.9963 198.57H52.5823L53.0131 198.139L55.5995 191.673L56.4614 191.242H68.0985L68.9604 191.673L71.5461 198.139L71.9772 198.57H74.5639L74.994 198.139ZM67.2364 186.932L66.8052 187.363H57.7542L57.3234 186.932L62.0641 174.864H62.4953L67.2364 186.932ZM105.165 180.467V177.451L104.734 177.02H102.147L101.717 177.451L97.8368 192.105H97.4067L93.0966 177.451L92.6655 177.02H88.7865L88.3554 177.451L84.0453 192.105H83.6142L79.7352 177.451L79.3041 177.02H76.7185L76.2874 177.451V180.467L81.4587 198.139L81.8898 198.57H85.7688L86.1999 198.139L90.51 183.053H90.9411L95.2512 198.139L95.6823 198.57H99.5613L99.9924 198.139L105.165 180.467ZM122.405 186.071H112.923L112.492 185.64C112.492 184.346 112.923 180.467 117.664 180.467C122.405 180.467 122.836 184.346 122.836 185.64L122.405 186.071ZM118.095 199C123.267 199 126.284 195.983 126.715 192.535L126.284 192.105H122.836L122.405 192.535C121.543 194.69 119.818 195.121 118.095 195.121C112.923 195.121 112.492 190.811 112.492 189.95L112.923 189.519H127.146L127.576 189.088V187.794C127.576 181.761 124.56 176.588 117.664 176.588C110.768 176.588 107.75 181.761 107.75 187.794C107.75 194.26 111.198 199 118.095 199ZM147.402 192.535C147.402 188.657 145.248 186.932 140.938 186.071C136.628 185.209 134.903 184.777 134.903 182.622C134.903 180.898 136.628 180.467 138.782 180.467C141.8 180.467 142.661 181.761 142.661 183.053L143.092 183.484H146.54L146.971 183.053C146.971 178.743 143.523 176.588 138.782 176.588C132.749 176.588 130.593 179.605 130.593 182.622C130.593 186.501 133.18 188.225 137.49 189.088C141.8 189.95 143.092 190.381 143.092 192.535C143.092 194.26 141.8 195.121 138.782 195.121C135.766 195.121 134.472 193.829 134.472 191.673L134.041 191.242H130.593L130.162 191.673C130.162 196.414 133.18 199 138.782 199C144.817 199 147.402 195.983 147.402 192.535ZM149.988 187.794C149.988 194.69 153.867 199 160.333 199C166.797 199 170.676 194.69 170.676 187.794C170.676 180.898 166.797 176.588 160.333 176.588C153.867 176.588 149.988 180.898 149.988 187.794ZM154.298 187.794C154.298 183.053 156.454 180.467 160.333 180.467C164.212 180.467 166.366 183.053 166.366 187.794C166.366 192.535 164.212 195.121 160.333 195.121C156.454 195.121 154.298 192.535 154.298 187.794ZM204.726 198.139V185.209C204.726 180.467 203.433 176.588 197.398 176.588C194.381 176.588 192.227 177.882 190.934 179.605H190.502C189.64 178.312 188.348 176.588 184.899 176.588C181.882 176.588 180.159 177.882 179.297 179.174H178.865L178.434 177.451L178.003 177.02H174.987L174.555 177.451V198.139L174.987 198.57H178.434L178.865 198.139V186.071C178.865 181.761 181.451 180.467 183.607 180.467C187.055 180.467 187.486 182.622 187.486 185.209V198.139L187.917 198.57H191.365L191.796 198.139V186.071C191.796 182.622 193.519 180.467 196.537 180.467C199.985 180.467 200.416 182.622 200.416 185.209V198.139L200.847 198.57H204.295L204.726 198.139ZM222.828 186.071H213.345L212.914 185.64C212.914 184.346 213.345 180.467 218.086 180.467C222.828 180.467 223.259 184.346 223.259 185.64L222.828 186.071ZM218.518 199C223.69 199 226.707 195.983 227.138 192.535L226.707 192.105H223.259L222.828 192.535C221.965 194.69 220.242 195.121 218.518 195.121C213.345 195.121 212.914 190.811 212.914 189.95L213.345 189.519H227.569L228 189.088V187.794C228 181.761 224.983 176.588 218.086 176.588C211.191 176.588 208.174 181.761 208.174 187.794C208.174 194.26 211.622 199 218.518 199Z" fill="#0000FF"/>
<path d="M33.6184 158.255V128.947L33.1873 128.516H28.4462L28.0154 128.947L18.1024 153.083H17.6712L7.75816 128.947L7.32695 128.516H2.58624L2.15503 128.947V158.255L2.58624 158.686H6.03422L6.46493 158.255V137.567H6.89614L15.516 158.255L15.9472 158.686H19.8263L20.2571 158.255L28.8773 137.567H29.3081V158.255L29.7394 158.686H33.1873L33.6184 158.255ZM43.9623 133.257V129.809L43.5315 129.378H40.0836L39.6524 129.809V133.257L40.0836 133.688H43.5315L43.9623 133.257ZM43.9623 158.255V137.567L43.5315 137.136H40.0836L39.6524 137.567V158.255L40.0836 158.686H43.5315L43.9623 158.255ZM67.6671 158.255V145.756C67.6671 140.584 65.512 136.705 59.478 136.705C55.599 136.705 53.8749 139.29 53.8749 139.29H53.4442L53.013 137.567L52.5822 137.136H49.565L49.1338 137.567V158.255L49.565 158.686H53.013L53.4442 158.255V147.911C53.4442 142.738 55.1681 140.584 59.0468 140.584C62.926 140.584 63.3572 143.6 63.3572 145.756V158.255L63.7879 158.686H67.2363L67.6671 158.255ZM76.7183 133.257V129.809L76.2872 129.378H72.8394L72.4082 129.809V133.257L72.8394 133.688H76.2872L76.7183 133.257ZM76.7183 158.255V137.567L76.2872 137.136H72.8394L72.4082 137.567V158.255L72.8394 158.686H76.2872L76.7183 158.255ZM97.8367 152.652C97.8367 148.773 95.6812 147.048 91.3711 146.187C87.061 145.325 85.3375 144.894 85.3375 142.738C85.3375 141.015 87.061 140.584 89.2165 140.584C92.2333 140.584 93.0955 141.877 93.0955 143.17L93.5266 143.6H96.9745L97.4056 143.17C97.4056 138.859 93.9577 136.705 89.2165 136.705C83.182 136.705 81.0274 139.722 81.0274 142.738C81.0274 146.618 83.6131 148.342 87.9232 149.204C92.2333 150.066 93.5266 150.497 93.5266 152.652C93.5266 154.376 92.2333 155.237 89.2165 155.237C86.1998 155.237 84.9064 153.945 84.9064 151.789L84.4753 151.359H81.0274L80.5963 151.789C80.5963 156.531 83.6131 159.116 89.2165 159.116C95.2501 159.116 97.8367 156.1 97.8367 152.652ZM113.784 158.255V155.237L113.353 154.807H109.905C109.043 154.807 108.18 154.376 108.18 153.083V141.446L108.611 141.015H113.353L113.784 140.584V137.567L113.353 137.136H108.611L108.18 136.705V132.826L107.749 132.395H104.301L103.87 132.826V136.705L103.439 137.136H100.422L99.9913 137.567V140.584L100.422 141.015H103.439L103.87 141.446V153.083C103.87 156.962 106.887 158.686 109.905 158.686H113.353L113.784 158.255ZM130.592 140.584V137.567L130.161 137.136H128.438C125.42 137.136 124.127 137.998 122.834 139.29H122.403L121.972 137.567L121.541 137.136H118.524L118.093 137.567V158.255L118.524 158.686H121.972L122.403 158.255V147.48C122.403 142.308 124.559 141.015 128.006 141.015H130.161L130.592 140.584ZM152.143 140.584V137.567L151.711 137.136H149.125L148.694 137.567L142.66 153.514H142.229L136.195 137.567L135.764 137.136H133.178L132.747 137.567V140.584L140.074 158.686V159.116C139.212 161.272 137.919 161.703 135.764 161.703H134.902L134.471 162.134V165.151L134.902 165.582H135.764C140.936 165.582 142.66 164.289 145.246 157.824L152.143 140.584Z" fill="#0000FF"/>
<path d="M124.452 103.447C103.543 103.447 86.5928 86.4964 86.5928 65.5865C86.5928 44.6767 103.543 27.726 124.452 27.726C145.362 27.726 162.313 44.6767 162.313 65.5865C162.313 86.4964 145.362 103.447 124.452 103.447Z" fill="#0000FF"/>
<path d="M77.9756 100.464V30.5012L76.946 29.4716H61.5134L60.4846 30.5012L39.907 80.9151H38.8781L18.3006 30.5012L17.2718 29.4716H1.83906L0.809814 30.5012V100.464L1.83906 101.493H14.1853L15.2141 100.464V60.3381H16.243L32.7048 100.464L33.7337 101.493H45.0515L46.0803 100.464L62.5423 60.3381H63.571V100.464L64.5999 101.493H76.946L77.9756 100.464Z" fill="#0000FF"/>
<path d="M227.409 100.463V90.1749L203.745 30.5012L202.716 29.4716H189.341L188.312 30.5012L164.648 90.1749V100.463L165.676 101.493H174.936L175.966 100.463L181.11 87.089L183.167 86.0603H208.89L210.947 87.089L216.091 100.463L217.12 101.493H226.38L227.409 100.463ZM205.803 72.6849L204.774 73.7135H187.283L186.254 72.6849L195.514 47.9913H196.543L205.803 72.6849Z" fill="#0000FF"/>
</svg>
