<svg width="48" height="49" viewBox="0 0 48 49" fill="none" xmlns="http://www.w3.org/2000/svg">
<path d="M23.6883 0C9.1802 0 0 9.47365 0 24.4491C0 39.4246 9.1802 48.9755 23.6883 48.9755C38.1965 48.9755 47.4543 39.3782 47.4543 24.4491C47.4543 9.52001 38.212 0 23.6883 0ZM33.5209 31.1409C32.3093 31.9909 30.2279 33.6137 30.2279 33.6137C30.2279 33.6137 28.1464 35.02 28.1464 37.4155V44.0455C28.1464 44.0455 28.7211 47.0746 25.4281 47.0746H22.0263C18.7332 47.0746 19.3079 44.0455 19.3079 44.0455V37.4155C19.3079 35.02 17.2265 33.6137 17.2265 33.6137C17.2265 33.6137 15.145 31.9909 13.9334 31.1409C12.7218 30.2909 12.7839 28.6682 12.7839 28.6682V7.9282C12.7839 3.41547 17.5061 2.92092 17.5061 2.92092H29.9327C29.9327 2.92092 34.6549 3.41547 34.6549 7.9282V28.6682C34.6549 28.6682 34.7325 30.2909 33.5054 31.1409" fill="#667B68"/>
</svg>
